<?xml version="1.0" encoding="utf-8"?>
<!-- Generator: Adobe Illustrator 15.1.0, SVG Export Plug-In . SVG Version: 6.00 Build 0)  -->
<!DOCTYPE svg PUBLIC "-//W3C//DTD SVG 1.1//EN" "http://www.w3.org/Graphics/SVG/1.1/DTD/svg11.dtd">
<svg version="1.1" id="Layer_2" xmlns="http://www.w3.org/2000/svg" xmlns:xlink="http://www.w3.org/1999/xlink" x="0px" y="0px"
	 width="22px" height="22px" viewBox="0 0 22 22" enable-background="new 0 0 22 22" xml:space="preserve">
<path fill="none" stroke="#FFFFFF" stroke-linecap="round" stroke-miterlimit="10" d="M19.229,16.686L20.5,20.5l-3.814-1.271"/>
<path fill="none" stroke="#FFFFFF" stroke-linecap="round" stroke-miterlimit="10" d="M16.686,19.229C15.07,20.346,13.111,21,11,21
	C5.477,21,1,16.523,1,11C1,5.477,5.477,1,11,1c5.523,0,10,4.477,10,10c0,2.111-0.654,4.07-1.771,5.686"/>
<path fill="#FFFFFF" d="M11,6c-0.552,0-1,0.448-1,1s0.448,1,1,1s1-0.448,1-1S11.552,6,11,6L11,6z"/>
<polyline fill="none" stroke="#FFFFFF" stroke-linecap="round" stroke-linejoin="round" stroke-miterlimit="10" points="8.5,10 
	11,10 11,15 "/>
<line fill="none" stroke="#FFFFFF" stroke-linecap="round" stroke-miterlimit="10" x1="8.5" y1="15" x2="13.5" y2="15"/>
</svg>
