<?xml version="1.0" encoding="utf-8"?>
<!-- Generator: Adobe Illustrator 15.1.0, SVG Export Plug-In . SVG Version: 6.00 Build 0)  -->
<!DOCTYPE svg PUBLIC "-//W3C//DTD SVG 1.1//EN" "http://www.w3.org/Graphics/SVG/1.1/DTD/svg11.dtd">
<svg version="1.1" id="Layer_1" xmlns="http://www.w3.org/2000/svg" xmlns:xlink="http://www.w3.org/1999/xlink" x="0px" y="0px"
	 width="22px" height="22px" viewBox="0 0 22 22" enable-background="new 0 0 22 22" xml:space="preserve">
<g id="Layer_1_1_" display="none">
	<circle display="inline" fill="none" stroke="#000000" stroke-linejoin="round" stroke-miterlimit="10" cx="11" cy="11" r="4"/>
	<path display="inline" fill="none" stroke="#000000" stroke-linejoin="round" stroke-miterlimit="10" d="M20.88,12.5
		C20.96,12.01,21,11.51,21,11s-0.04-1.01-0.12-1.5h-2.021c-0.209-1.09-0.641-2.11-1.25-2.99l1.439-1.44
		c-0.6-0.81-1.311-1.52-2.119-2.12L15.49,4.39c-0.881-0.61-1.9-1.04-2.99-1.25V1.12C12.01,1.04,11.51,1,11,1S9.99,1.04,9.5,1.12
		v2.02C8.41,3.35,7.39,3.78,6.51,4.38L5.08,2.95C4.27,3.54,3.55,4.26,2.95,5.07l1.44,1.44C3.78,7.39,3.35,8.41,3.14,9.5H1.12
		C1.04,9.99,1,10.49,1,11s0.04,1.01,0.12,1.5h2.02c0.21,1.09,0.64,2.109,1.25,2.99L2.95,16.93c0.6,0.812,1.31,1.521,2.12,2.12
		l1.44-1.438c0.88,0.609,1.9,1.039,2.99,1.25v2.02C9.99,20.96,10.49,21,11,21s1.01-0.04,1.5-0.12v-2.021
		c1.09-0.209,2.109-0.641,2.99-1.25l1.439,1.439c0.811-0.6,1.529-1.318,2.119-2.13l-1.43-1.43c0.6-0.88,1.029-1.9,1.24-2.99
		L20.88,12.5L20.88,12.5z"/>
	<g display="inline">
		<circle fill="none" stroke="#000000" stroke-linecap="round" stroke-linejoin="round" cx="11" cy="11" r="4"/>
		<path fill="none" stroke="#000000" stroke-linecap="round" stroke-linejoin="round" d="M19.111,13.951
			c-0.187-0.107-0.371-0.215-0.557-0.321c0.129-0.37,0.229-0.745,0.303-1.13c0.215,0,0.429,0,0.643,0c0.828,0,1.5-0.672,1.5-1.5
			s-0.672-1.5-1.5-1.5c-0.214,0-0.428,0-0.643,0c-0.072-0.385-0.174-0.76-0.303-1.13c0.186-0.107,0.37-0.214,0.557-0.321
			C19.828,7.635,20.074,6.717,19.66,6s-1.332-0.963-2.049-0.549c-0.187,0.107-0.371,0.214-0.557,0.321
			c-0.257-0.297-0.529-0.571-0.826-0.827c0.105-0.186,0.213-0.371,0.319-0.556C16.963,3.671,16.717,2.754,16,2.34
			s-1.635-0.168-2.049,0.549c-0.107,0.185-0.215,0.37-0.321,0.556c-0.37-0.129-0.745-0.229-1.13-0.303c0-0.214,0-0.428,0-0.642
			C12.5,1.671,11.828,1,11,1S9.5,1.671,9.5,2.5c0,0.214,0,0.428,0,0.642C9.115,3.215,8.74,3.316,8.37,3.445
			C8.263,3.259,8.156,3.074,8.049,2.889C7.635,2.171,6.717,1.926,6,2.34S5.037,3.671,5.451,4.389
			C5.558,4.575,5.665,4.76,5.772,4.945c-0.297,0.256-0.571,0.53-0.827,0.827C4.759,5.665,4.574,5.558,4.389,5.451
			C3.671,5.037,2.754,5.283,2.34,6S2.171,7.635,2.889,8.049c0.185,0.107,0.37,0.214,0.556,0.321C3.316,8.74,3.215,9.115,3.142,9.5
			c-0.214,0-0.428,0-0.642,0C1.671,9.5,1,10.172,1,11s0.671,1.5,1.5,1.5c0.214,0,0.428,0,0.642,0c0.073,0.385,0.174,0.76,0.303,1.13
			c-0.186,0.106-0.371,0.214-0.556,0.321C2.171,14.365,1.926,15.283,2.34,16s1.332,0.963,2.049,0.549
			c0.186-0.107,0.371-0.214,0.556-0.32c0.256,0.297,0.53,0.57,0.827,0.826c-0.107,0.187-0.214,0.371-0.321,0.557
			C5.037,18.328,5.283,19.246,6,19.66s1.635,0.168,2.049-0.549c0.107-0.187,0.214-0.371,0.321-0.557
			c0.37,0.129,0.745,0.229,1.13,0.303c0,0.215,0,0.429,0,0.643c0,0.828,0.672,1.5,1.5,1.5s1.5-0.672,1.5-1.5
			c0-0.214,0-0.428,0-0.643c0.385-0.072,0.76-0.174,1.13-0.303c0.106,0.186,0.214,0.37,0.321,0.557
			c0.414,0.717,1.332,0.963,2.049,0.549s0.963-1.332,0.549-2.049c-0.107-0.187-0.214-0.371-0.32-0.557
			c0.297-0.257,0.57-0.529,0.826-0.826c0.187,0.105,0.371,0.213,0.557,0.319c0.673,0.39,1.529,0.199,1.978-0.437
			c0.024-0.036,0.05-0.073,0.072-0.112C20.074,15.283,19.828,14.365,19.111,13.951z"/>
	</g>
</g>
<g id="Layer_2" display="none">
	<circle display="inline" fill="none" stroke="#000000" stroke-linecap="round" stroke-linejoin="round" cx="11" cy="11" r="9"/>
	
		<line display="inline" fill="none" stroke="#000000" stroke-linecap="round" stroke-linejoin="round" x1="15" y1="11" x2="21.5" y2="11"/>
	
		<line display="inline" fill="none" stroke="#000000" stroke-linecap="round" stroke-linejoin="round" x1="0.5" y1="11" x2="2" y2="11"/>
	
		<line display="inline" fill="none" stroke="#000000" stroke-linecap="round" stroke-linejoin="round" x1="19.693" y1="8.67" x2="21.143" y2="8.283"/>
	
		<line display="inline" fill="none" stroke="#000000" stroke-linecap="round" stroke-linejoin="round" x1="0.857" y1="13.717" x2="2.307" y2="13.33"/>
	
		<line display="inline" fill="none" stroke="#000000" stroke-linecap="round" stroke-linejoin="round" x1="18.793" y1="6.5" x2="20.092" y2="5.75"/>
	
		<line display="inline" fill="none" stroke="#000000" stroke-linecap="round" stroke-linejoin="round" x1="1.906" y1="16.249" x2="3.205" y2="15.5"/>
	
		<line display="inline" fill="none" stroke="#000000" stroke-linecap="round" stroke-linejoin="round" x1="17.361" y1="4.636" x2="18.423" y2="3.576"/>
	
		<line display="inline" fill="none" stroke="#000000" stroke-linecap="round" stroke-linejoin="round" x1="3.574" y1="18.424" x2="4.635" y2="17.364"/>
	
		<line display="inline" fill="none" stroke="#000000" stroke-linecap="round" stroke-linejoin="round" x1="15.498" y1="3.207" x2="16.248" y2="1.908"/>
	
		<line display="inline" fill="none" stroke="#000000" stroke-linecap="round" stroke-linejoin="round" x1="5.747" y1="20.096" x2="9.009" y2="14.445"/>
	
		<line display="inline" fill="none" stroke="#000000" stroke-linecap="round" stroke-linejoin="round" x1="13.327" y1="2.308" x2="13.716" y2="0.859"/>
	
		<line display="inline" fill="none" stroke="#000000" stroke-linecap="round" stroke-linejoin="round" x1="8.279" y1="21.143" x2="8.668" y2="19.695"/>
	
		<line display="inline" fill="none" stroke="#000000" stroke-linecap="round" stroke-linejoin="round" x1="10.997" y1="2.001" x2="10.998" y2="0.501"/>
	
		<line display="inline" fill="none" stroke="#000000" stroke-linecap="round" stroke-linejoin="round" x1="10.996" y1="21.501" x2="10.998" y2="20.002"/>
	
		<line display="inline" fill="none" stroke="#000000" stroke-linecap="round" stroke-linejoin="round" x1="8.668" y1="2.309" x2="8.28" y2="0.86"/>
	
		<line display="inline" fill="none" stroke="#000000" stroke-linecap="round" stroke-linejoin="round" x1="13.713" y1="21.145" x2="13.327" y2="19.695"/>
	
		<line display="inline" fill="none" stroke="#000000" stroke-linecap="round" stroke-linejoin="round" x1="9.014" y1="7.566" x2="5.75" y2="1.913"/>
	
		<line display="inline" fill="none" stroke="#000000" stroke-linecap="round" stroke-linejoin="round" x1="16.246" y1="20.098" x2="15.498" y2="18.797"/>
	
		<line display="inline" fill="none" stroke="#000000" stroke-linecap="round" stroke-linejoin="round" x1="4.635" y1="4.639" x2="3.573" y2="3.579"/>
	
		<line display="inline" fill="none" stroke="#000000" stroke-linecap="round" stroke-linejoin="round" x1="18.422" y1="18.43" x2="17.361" y2="17.367"/>
	
		<line display="inline" fill="none" stroke="#000000" stroke-linecap="round" stroke-linejoin="round" x1="3.205" y1="6.503" x2="1.904" y2="5.753"/>
	
		<line display="inline" fill="none" stroke="#000000" stroke-linecap="round" stroke-linejoin="round" x1="20.092" y1="16.256" x2="18.793" y2="15.504"/>
	
		<line display="inline" fill="none" stroke="#000000" stroke-linecap="round" stroke-linejoin="round" x1="2.307" y1="8.674" x2="0.855" y2="8.287"/>
	
		<line display="inline" fill="none" stroke="#000000" stroke-linecap="round" stroke-linejoin="round" x1="21.143" y1="13.725" x2="19.691" y2="13.334"/>
	<circle display="inline" fill="none" stroke="#000000" stroke-linecap="round" stroke-linejoin="round" cx="11" cy="11" r="4"/>
</g>
<circle fill="none" stroke="#FFFFFF" stroke-miterlimit="10" cx="11" cy="11" r="4"/>
<circle fill="none" stroke="#FFFFFF" stroke-miterlimit="10" cx="11" cy="11" r="9"/>
<line fill="none" stroke="#FFFFFF" stroke-linecap="round" stroke-miterlimit="10" x1="0.5" y1="11" x2="1.914" y2="11"/>
<line fill="none" stroke="#FFFFFF" stroke-linecap="round" stroke-miterlimit="10" x1="15" y1="11" x2="21.5" y2="11"/>
<line fill="none" stroke="#FFFFFF" stroke-linecap="round" stroke-miterlimit="10" x1="0.857" y1="13.717" x2="2.306" y2="13.329"/>
<line fill="none" stroke="#FFFFFF" stroke-linecap="round" stroke-miterlimit="10" x1="19.682" y1="8.674" x2="21.142" y2="8.283"/>
<line fill="none" stroke="#FFFFFF" stroke-linecap="round" stroke-miterlimit="10" x1="1.906" y1="16.249" x2="3.228" y2="15.487"/>
<line fill="none" stroke="#FFFFFF" stroke-linecap="round" stroke-miterlimit="10" x1="18.79" y1="6.502" x2="20.092" y2="5.75"/>
<line fill="none" stroke="#FFFFFF" stroke-linecap="round" stroke-miterlimit="10" x1="3.575" y1="18.424" x2="4.636" y2="17.362"/>
<line fill="none" stroke="#FFFFFF" stroke-linecap="round" stroke-miterlimit="10" x1="17.363" y1="4.635" x2="18.423" y2="3.576"/>
<line fill="none" stroke="#FFFFFF" stroke-linecap="round" stroke-miterlimit="10" x1="5.748" y1="20.093" x2="8.998" y2="14.465"/>
<line fill="none" stroke="#FFFFFF" stroke-linecap="round" stroke-miterlimit="10" x1="15.499" y1="3.205" x2="16.248" y2="1.908"/>
<line fill="none" stroke="#FFFFFF" stroke-linecap="round" stroke-miterlimit="10" x1="8.279" y1="21.143" x2="8.671" y2="19.686"/>
<line fill="none" stroke="#FFFFFF" stroke-linecap="round" stroke-miterlimit="10" x1="13.328" y1="2.307" x2="13.716" y2="0.858"/>
<line fill="none" stroke="#FFFFFF" stroke-linecap="round" stroke-miterlimit="10" x1="10.996" y1="21.501" x2="10.998" y2="20"/>
<line fill="none" stroke="#FFFFFF" stroke-linecap="round" stroke-miterlimit="10" x1="10.998" y1="2" x2="10.998" y2="0.502"/>
<line fill="none" stroke="#FFFFFF" stroke-linecap="round" stroke-miterlimit="10" x1="13.713" y1="21.145" x2="13.326" y2="19.692"/>
<line fill="none" stroke="#FFFFFF" stroke-linecap="round" stroke-miterlimit="10" x1="8.668" y1="2.307" x2="8.28" y2="0.859"/>
<line fill="none" stroke="#FFFFFF" stroke-linecap="round" stroke-miterlimit="10" x1="16.246" y1="20.096" x2="15.5" y2="18.8"/>
<line fill="none" stroke="#FFFFFF" stroke-linecap="round" stroke-miterlimit="10" x1="8.998" y1="7.539" x2="5.748" y2="1.91"/>
<line fill="none" stroke="#FFFFFF" stroke-linecap="round" stroke-miterlimit="10" x1="18.422" y1="18.43" x2="17.358" y2="17.364"/>
<line fill="none" stroke="#FFFFFF" stroke-linecap="round" stroke-miterlimit="10" x1="4.636" y1="4.641" x2="3.573" y2="3.578"/>
<line fill="none" stroke="#FFFFFF" stroke-linecap="round" stroke-miterlimit="10" x1="20.092" y1="16.256" x2="18.781" y2="15.497"/>
<line fill="none" stroke="#FFFFFF" stroke-linecap="round" stroke-miterlimit="10" x1="3.195" y1="6.499" x2="1.914" y2="5.759"/>
<line fill="none" stroke="#FFFFFF" stroke-linecap="round" stroke-miterlimit="10" x1="21.142" y1="13.724" x2="19.685" y2="13.331"/>
<line fill="none" stroke="#FFFFFF" stroke-linecap="round" stroke-miterlimit="10" x1="2.317" y1="8.677" x2="0.855" y2="8.287"/>
</svg>
