<?xml version="1.0" encoding="utf-8"?>
<!-- Generator: Adobe Illustrator 15.1.0, SVG Export Plug-In . SVG Version: 6.00 Build 0)  -->
<!DOCTYPE svg PUBLIC "-//W3C//DTD SVG 1.1//EN" "http://www.w3.org/Graphics/SVG/1.1/DTD/svg11.dtd">
<svg version="1.1" id="Layer_1" xmlns="http://www.w3.org/2000/svg" xmlns:xlink="http://www.w3.org/1999/xlink" x="0px" y="0px"
	 width="320px" height="150px" viewBox="-0.5 0.667 320 150" enable-background="new -0.5 0.667 320 150" xml:space="preserve">
<g>
	<path fill="#F2F2F2" d="M21,92.167v-91h276v91H21z M287.5,77.167c-3.032,0-5.5,2.467-5.5,5.499c0,3.033,2.468,5.501,5.5,5.501
		s5.5-2.468,5.5-5.501C293,79.633,290.532,77.167,287.5,77.167z M30.5,77.167c-3.033,0-5.5,2.467-5.5,5.499
		c0,3.033,2.467,5.501,5.5,5.501s5.5-2.468,5.5-5.501C36,79.633,33.533,77.167,30.5,77.167z"/>
	<path fill="#C6C6C6" d="M296.5,1.667v90h-275v-90H296.5 M287.5,88.667c3.309,0,6-2.692,6-6.001c0-3.308-2.691-5.999-6-5.999
		s-6,2.691-6,5.999C281.5,85.974,284.191,88.667,287.5,88.667 M30.5,88.667c3.309,0,6-2.692,6-6.001c0-3.308-2.691-5.999-6-5.999
		s-6,2.691-6,5.999C24.5,85.974,27.191,88.667,30.5,88.667 M297.5,0.667h-277v92h277V0.667L297.5,0.667z M287.5,87.667
		c-2.761,0-5-2.239-5-5.001c0-2.76,2.239-4.999,5-4.999s5,2.239,5,4.999C292.5,85.427,290.261,87.667,287.5,87.667L287.5,87.667z
		 M30.5,87.667c-2.761,0-5-2.239-5-5.001c0-2.76,2.239-4.999,5-4.999s5,2.239,5,4.999C35.5,85.427,33.261,87.667,30.5,87.667
		L30.5,87.667z"/>
</g>
<g>
	<g>
		<rect x="58" y="68.167" fill="#E8424A" width="33" height="21"/>
		<path fill="#BF363D" d="M90.5,68.667v20h-32v-20H90.5 M91.5,67.667h-34v22h34V67.667L91.5,67.667z"/>
	</g>
	<g>
		<path fill="#E6E6E6" d="M82.5,83.167c-2.481,0-4.5-2.019-4.5-4.5s2.019-4.5,4.5-4.5s4.5,2.019,4.5,4.5S84.981,83.167,82.5,83.167z
			"/>
		<path fill="#BF363D" d="M82.5,74.667c2.206,0,4,1.794,4,4s-1.794,4-4,4s-4-1.794-4-4S80.294,74.667,82.5,74.667 M82.5,73.667
			c-2.761,0-5,2.238-5,5s2.239,5,5,5s5-2.238,5-5S85.261,73.667,82.5,73.667L82.5,73.667z"/>
	</g>
	<g>
		<path fill="#E6E6E6" d="M66.5,83.167c-2.481,0-4.5-2.019-4.5-4.5s2.019-4.5,4.5-4.5s4.5,2.019,4.5,4.5S68.981,83.167,66.5,83.167z
			"/>
		<path fill="#BF363D" d="M66.5,74.667c2.206,0,4,1.794,4,4s-1.794,4-4,4s-4-1.794-4-4S64.294,74.667,66.5,74.667 M66.5,73.667
			c-2.761,0-5,2.238-5,5s2.239,5,5,5s5-2.238,5-5S69.261,73.667,66.5,73.667L66.5,73.667z"/>
	</g>
	<line fill="none" stroke="#BF363D" stroke-miterlimit="10" x1="91.334" y1="71.167" x2="57.5" y2="71.167"/>
	<line fill="none" stroke="#BF363D" stroke-miterlimit="10" x1="91.334" y1="86.167" x2="57.5" y2="86.167"/>
</g>
<g>
	<g>
		<rect x="100" y="68.167" fill="#F6A55E" width="33" height="21"/>
		<path fill="#D48E51" d="M132.5,68.667v20h-32v-20H132.5 M133.5,67.667h-34v22h34V67.667L133.5,67.667z"/>
	</g>
	<g>
		<path fill="#E6E6E6" d="M124.5,83.167c-2.481,0-4.5-2.019-4.5-4.5s2.019-4.5,4.5-4.5s4.5,2.019,4.5,4.5
			S126.981,83.167,124.5,83.167z"/>
		<path fill="#D48E51" d="M124.5,74.667c2.206,0,4,1.794,4,4s-1.794,4-4,4s-4-1.794-4-4S122.294,74.667,124.5,74.667 M124.5,73.667
			c-2.761,0-5,2.238-5,5s2.239,5,5,5s5-2.238,5-5S127.261,73.667,124.5,73.667L124.5,73.667z"/>
	</g>
	<g>
		<path fill="#E6E6E6" d="M108.5,83.167c-2.481,0-4.5-2.019-4.5-4.5s2.019-4.5,4.5-4.5s4.5,2.019,4.5,4.5
			S110.981,83.167,108.5,83.167z"/>
		<path fill="#D48E51" d="M108.5,74.667c2.206,0,4,1.794,4,4s-1.794,4-4,4s-4-1.794-4-4S106.294,74.667,108.5,74.667 M108.5,73.667
			c-2.761,0-5,2.238-5,5s2.239,5,5,5s5-2.238,5-5S111.261,73.667,108.5,73.667L108.5,73.667z"/>
	</g>
	<line fill="none" stroke="#D48E51" stroke-miterlimit="10" x1="133.334" y1="71.167" x2="99.5" y2="71.167"/>
	<line fill="none" stroke="#D48E51" stroke-miterlimit="10" x1="133.334" y1="86.167" x2="99.5" y2="86.167"/>
</g>
<g>
	<g>
		<rect x="200" y="68.167" fill="#56BCB7" width="33" height="21"/>
		<path fill="#4CA6A1" d="M232.5,68.667v20h-32v-20H232.5 M233.5,67.667h-34v22h34V67.667L233.5,67.667z"/>
	</g>
	<g>
		<path fill="#E6E6E6" d="M224.5,83.167c-2.481,0-4.5-2.019-4.5-4.5s2.019-4.5,4.5-4.5s4.5,2.019,4.5,4.5
			S226.981,83.167,224.5,83.167z"/>
		<path fill="#4CA6A1" d="M224.5,74.667c2.206,0,4,1.794,4,4s-1.794,4-4,4s-4-1.794-4-4S222.294,74.667,224.5,74.667 M224.5,73.667
			c-2.762,0-5,2.238-5,5s2.238,5,5,5s5-2.238,5-5S227.262,73.667,224.5,73.667L224.5,73.667z"/>
	</g>
	<g>
		<path fill="#E6E6E6" d="M208.5,83.167c-2.481,0-4.5-2.019-4.5-4.5s2.019-4.5,4.5-4.5s4.5,2.019,4.5,4.5
			S210.981,83.167,208.5,83.167z"/>
		<path fill="#4CA6A1" d="M208.5,74.667c2.206,0,4,1.794,4,4s-1.794,4-4,4s-4-1.794-4-4S206.294,74.667,208.5,74.667 M208.5,73.667
			c-2.762,0-5,2.238-5,5s2.238,5,5,5s5-2.238,5-5S211.262,73.667,208.5,73.667L208.5,73.667z"/>
	</g>
	<line fill="none" stroke="#4CA6A1" stroke-miterlimit="10" x1="233.334" y1="71.167" x2="199.5" y2="71.167"/>
	<line fill="none" stroke="#4CA6A1" stroke-miterlimit="10" x1="233.334" y1="86.167" x2="199.5" y2="86.167"/>
</g>
<g>
	<g>
		<rect x="243" y="68.167" fill="#457ABD" width="33" height="21"/>
		<path fill="#3C69A3" d="M275.5,68.667v20h-32v-20H275.5 M276.5,67.667h-34v22h34V67.667L276.5,67.667z"/>
	</g>
	<g>
		<path fill="#E6E6E6" d="M267.5,83.167c-2.481,0-4.5-2.019-4.5-4.5s2.019-4.5,4.5-4.5s4.5,2.019,4.5,4.5
			S269.981,83.167,267.5,83.167z"/>
		<path fill="#3C69A3" d="M267.5,74.667c2.206,0,4,1.794,4,4s-1.794,4-4,4s-4-1.794-4-4S265.294,74.667,267.5,74.667 M267.5,73.667
			c-2.762,0-5,2.238-5,5s2.238,5,5,5s5-2.238,5-5S270.262,73.667,267.5,73.667L267.5,73.667z"/>
	</g>
	<g>
		<path fill="#E6E6E6" d="M251.5,83.167c-2.481,0-4.5-2.019-4.5-4.5s2.019-4.5,4.5-4.5s4.5,2.019,4.5,4.5
			S253.981,83.167,251.5,83.167z"/>
		<path fill="#3C69A3" d="M251.5,74.667c2.206,0,4,1.794,4,4s-1.794,4-4,4s-4-1.794-4-4S249.294,74.667,251.5,74.667 M251.5,73.667
			c-2.762,0-5,2.238-5,5s2.238,5,5,5s5-2.238,5-5S254.262,73.667,251.5,73.667L251.5,73.667z"/>
	</g>
	<line fill="none" stroke="#3C69A3" stroke-miterlimit="10" x1="276.334" y1="71.167" x2="242.5" y2="71.167"/>
	<line fill="none" stroke="#3C69A3" stroke-miterlimit="10" x1="276.334" y1="86.167" x2="242.5" y2="86.167"/>
</g>
<g>
	<g>
		<rect x="23" y="31.167" fill="#666666" width="21" height="33"/>
		<path fill="#4D4D4D" d="M43.5,31.667v32h-20v-32H43.5 M44.5,30.667h-22v34h22V30.667L44.5,30.667z"/>
	</g>
	<g>
		<path fill="#E6E6E6" d="M33.5,60.167c-2.481,0-4.5-2.019-4.5-4.5s2.019-4.5,4.5-4.5s4.5,2.019,4.5,4.5S35.981,60.167,33.5,60.167z
			"/>
		<path fill="#4D4D4D" d="M33.5,51.667c2.206,0,4,1.794,4,4s-1.794,4-4,4s-4-1.794-4-4S31.294,51.667,33.5,51.667 M33.5,50.667
			c-2.761,0-5,2.239-5,5c0,2.762,2.239,5,5,5s5-2.238,5-5C38.5,52.906,36.261,50.667,33.5,50.667L33.5,50.667z"/>
	</g>
	<g>
		<path fill="#E6E6E6" d="M33.5,44.167c-2.481,0-4.5-2.019-4.5-4.5s2.019-4.5,4.5-4.5s4.5,2.019,4.5,4.5S35.981,44.167,33.5,44.167z
			"/>
		<path fill="#4D4D4D" d="M33.5,35.667c2.206,0,4,1.794,4,4s-1.794,4-4,4s-4-1.794-4-4S31.294,35.667,33.5,35.667 M33.5,34.667
			c-2.761,0-5,2.239-5,5c0,2.762,2.239,5,5,5s5-2.238,5-5C38.5,36.906,36.261,34.667,33.5,34.667L33.5,34.667z"/>
	</g>
	<line fill="none" stroke="#4D4D4D" stroke-miterlimit="10" x1="41" y1="64.5" x2="41" y2="30.667"/>
	<line fill="none" stroke="#4D4D4D" stroke-miterlimit="10" x1="26" y1="64.5" x2="26" y2="30.667"/>
</g>
<g>
	<rect x="59" y="36.167" fill="#E6E6E6" width="32" height="24"/>
	<path fill="#CCCCCC" d="M90.5,36.667v23h-31v-23H90.5 M91.5,35.667h-33v25h33V35.667L91.5,35.667z"/>
</g>
<g>
	<rect x="142" y="36.167" fill="#E6E6E6" width="32" height="24"/>
	<path fill="#CCCCCC" d="M173.5,36.667v23h-31v-23H173.5 M174.5,35.667h-33v25h33V35.667L174.5,35.667z"/>
</g>
<g>
	<rect x="200" y="36.167" fill="#E6E6E6" width="32" height="24"/>
	<path fill="#CCCCCC" d="M231.5,36.667v23h-31v-23H231.5 M232.5,35.667h-33v25h33V35.667L232.5,35.667z"/>
</g>
<g>
	<rect x="249" y="36.167" fill="#E6E6E6" width="32" height="24"/>
	<path fill="#CCCCCC" d="M280.5,36.667v23h-31v-23H280.5 M281.5,35.667h-33v25h33V35.667L281.5,35.667z"/>
</g>
<g>
	<rect x="225" y="4.167" fill="#E6E6E6" width="34" height="19"/>
	<path fill="#CCCCCC" d="M258.5,4.667v18h-33v-18H258.5 M259.5,3.667h-35v20h35V3.667L259.5,3.667z"/>
</g>
<g>
	<rect x="142" y="4.167" fill="#E6E6E6" width="34" height="19"/>
	<path fill="#CCCCCC" d="M175.5,4.667v18h-33v-18H175.5 M176.5,3.667h-35v20h35V3.667L176.5,3.667z"/>
</g>
<g>
	<rect x="59" y="4.167" fill="#E6E6E6" width="34" height="19"/>
	<path fill="#CCCCCC" d="M92.5,4.667v18h-33v-18H92.5 M93.5,3.667h-35v20h35V3.667L93.5,3.667z"/>
</g>
<g>
	<path fill="#E6E6E6" d="M106.5,23.167c-5.238,0-9.5-4.262-9.5-9.5s4.262-9.5,9.5-9.5s9.5,4.262,9.5,9.5
		S111.738,23.167,106.5,23.167z"/>
	<path fill="#CCCCCC" d="M106.5,4.667c4.962,0,9,4.038,9,9s-4.038,9-9,9s-9-4.038-9-9S101.538,4.667,106.5,4.667 M106.5,3.667
		c-5.522,0-10,4.478-10,10s4.478,10,10,10s10-4.478,10-10S112.022,3.667,106.5,3.667L106.5,3.667z"/>
</g>
<g>
	<path fill="#E6E6E6" d="M128.5,23.167c-5.238,0-9.5-4.262-9.5-9.5s4.262-9.5,9.5-9.5s9.5,4.262,9.5,9.5
		S133.738,23.167,128.5,23.167z"/>
	<path fill="#CCCCCC" d="M128.5,4.667c4.962,0,9,4.038,9,9s-4.038,9-9,9s-9-4.038-9-9S123.538,4.667,128.5,4.667 M128.5,3.667
		c-5.522,0-10,4.478-10,10s4.478,10,10,10s10-4.478,10-10S134.022,3.667,128.5,3.667L128.5,3.667z"/>
</g>
<g>
	<path fill="#E6E6E6" d="M189.5,23.167c-5.238,0-9.5-4.262-9.5-9.5s4.262-9.5,9.5-9.5s9.5,4.262,9.5,9.5
		S194.738,23.167,189.5,23.167z"/>
	<path fill="#CCCCCC" d="M189.5,4.667c4.963,0,9,4.038,9,9s-4.037,9-9,9s-9-4.038-9-9S184.537,4.667,189.5,4.667 M189.5,3.667
		c-5.522,0-10,4.478-10,10s4.478,10,10,10s10-4.478,10-10S195.022,3.667,189.5,3.667L189.5,3.667z"/>
</g>
<g>
	<path fill="#E6E6E6" d="M211.5,23.167c-5.238,0-9.5-4.262-9.5-9.5s4.262-9.5,9.5-9.5s9.5,4.262,9.5,9.5
		S216.738,23.167,211.5,23.167z"/>
	<path fill="#CCCCCC" d="M211.5,4.667c4.963,0,9,4.038,9,9s-4.037,9-9,9s-9-4.038-9-9S206.537,4.667,211.5,4.667 M211.5,3.667
		c-5.522,0-10,4.478-10,10s4.478,10,10,10s10-4.478,10-10S217.022,3.667,211.5,3.667L211.5,3.667z"/>
</g>
<g>
	<path fill="#E6E6E6" d="M272.5,23.167c-5.238,0-9.5-4.262-9.5-9.5s4.262-9.5,9.5-9.5s9.5,4.262,9.5,9.5
		S277.738,23.167,272.5,23.167z"/>
	<path fill="#CCCCCC" d="M272.5,4.667c4.963,0,9,4.038,9,9s-4.037,9-9,9s-9-4.038-9-9S267.537,4.667,272.5,4.667 M272.5,3.667
		c-5.522,0-10,4.478-10,10s4.478,10,10,10s10-4.478,10-10S278.022,3.667,272.5,3.667L272.5,3.667z"/>
</g>
<g>
	<path fill="#E6E6E6" d="M45.5,23.167c-5.238,0-9.5-4.262-9.5-9.5s4.262-9.5,9.5-9.5s9.5,4.262,9.5,9.5S50.738,23.167,45.5,23.167z"
		/>
	<path fill="#CCCCCC" d="M45.5,4.667c4.962,0,9,4.038,9,9s-4.038,9-9,9s-9-4.038-9-9S40.538,4.667,45.5,4.667 M45.5,3.667
		c-5.522,0-10,4.478-10,10s4.478,10,10,10s10-4.478,10-10S51.022,3.667,45.5,3.667L45.5,3.667z"/>
</g>
<g>
	
		<line fill="none" stroke="#E8424A" stroke-width="2" stroke-linecap="round" stroke-miterlimit="10" x1="69.5" y1="102.667" x2="61.5" y2="102.667"/>
	
		<line fill="none" stroke="#E8424A" stroke-width="2" stroke-linecap="round" stroke-miterlimit="10" x1="65.5" y1="106.667" x2="65.5" y2="98.667"/>
</g>
<g>
	<path d="M73.366,113.715h2.273L80.441,125h-2.577l-1.024-2.514h-4.738L71.078,125h-2.513L73.366,113.715z M75.959,120.311
		l-1.489-3.635l-1.489,3.635H75.959z"/>
</g>
<g>
	<path d="M112.069,113.795h5.202c1.28,0,2.289,0.353,2.929,0.992c0.512,0.512,0.768,1.137,0.768,1.904v0.032
		c0,1.265-0.672,1.969-1.473,2.417c1.296,0.496,2.097,1.249,2.097,2.753v0.032c0,2.049-1.665,3.072-4.193,3.072h-5.33V113.795z
		 M118.519,117.108c0-0.736-0.576-1.152-1.616-1.152h-2.433v2.369h2.273c1.088,0,1.776-0.352,1.776-1.185V117.108L118.519,117.108z
		 M117.319,120.374h-2.849v2.465h2.929c1.088,0,1.745-0.383,1.745-1.215v-0.033C119.144,120.838,118.583,120.374,117.319,120.374z"
		/>
</g>
<g>
	<path d="M211.443,119.43v-0.032c0-3.185,2.402-5.794,5.844-5.794c2.113,0,3.377,0.704,4.418,1.729l-1.568,1.81
		c-0.865-0.784-1.746-1.265-2.865-1.265c-1.889,0-3.25,1.568-3.25,3.488v0.032c0,1.921,1.328,3.521,3.25,3.521
		c1.279,0,2.064-0.512,2.945-1.312l1.568,1.585c-1.152,1.232-2.434,2.001-4.594,2.001
		C213.895,125.192,211.443,122.647,211.443,119.43z"/>
</g>
<g>
	<path d="M254.589,113.795h4.37c3.521,0,5.954,2.418,5.954,5.57v0.031c0,3.152-2.433,5.604-5.954,5.604h-4.37V113.795
		L254.589,113.795z M257.055,116.021v6.755h1.904c2.016,0,3.377-1.361,3.377-3.346v-0.032c0-1.983-1.361-3.377-3.377-3.377H257.055z
		"/>
</g>
<line fill="none" stroke="#B2B2B2" stroke-width="2" stroke-linecap="round" stroke-miterlimit="10" x1="87.5" y1="102.667" x2="79.5" y2="102.667"/>
<g>
	
		<line fill="none" stroke="#E8424A" stroke-width="2" stroke-linecap="round" stroke-miterlimit="10" x1="111.5" y1="102.667" x2="103.5" y2="102.667"/>
	
		<line fill="none" stroke="#E8424A" stroke-width="2" stroke-linecap="round" stroke-miterlimit="10" x1="107.5" y1="106.667" x2="107.5" y2="98.667"/>
</g>
<line fill="none" stroke="#B2B2B2" stroke-width="2" stroke-linecap="round" stroke-miterlimit="10" x1="129.5" y1="102.667" x2="121.5" y2="102.667"/>
<g>
	
		<line fill="none" stroke="#E8424A" stroke-width="2" stroke-linecap="round" stroke-miterlimit="10" x1="221.5" y1="102.667" x2="229.5" y2="102.667"/>
	
		<line fill="none" stroke="#E8424A" stroke-width="2" stroke-linecap="round" stroke-miterlimit="10" x1="225.5" y1="98.667" x2="225.5" y2="106.667"/>
</g>
<line fill="none" stroke="#B2B2B2" stroke-width="2" stroke-linecap="round" stroke-miterlimit="10" x1="203.5" y1="102.667" x2="211.5" y2="102.667"/>
<g>
	
		<line fill="none" stroke="#E8424A" stroke-width="2" stroke-linecap="round" stroke-miterlimit="10" x1="264.5" y1="102.667" x2="272.5" y2="102.667"/>
	
		<line fill="none" stroke="#E8424A" stroke-width="2" stroke-linecap="round" stroke-miterlimit="10" x1="268.5" y1="98.667" x2="268.5" y2="106.667"/>
</g>
<line fill="none" stroke="#B2B2B2" stroke-width="2" stroke-linecap="round" stroke-miterlimit="10" x1="246.5" y1="102.667" x2="254.5" y2="102.667"/>
<g>
	<path fill="#B3B3B3" d="M61.939,138.379c-0.53-0.528-0.85-1.258-0.85-2.668v-0.021c0-2.14,1.02-3.808,2.998-3.808
		c0.91,0,1.529,0.289,2.139,0.779l-0.66,0.949c-0.49-0.38-0.899-0.609-1.52-0.609c-1.219,0-1.659,1.27-1.679,2.229
		c0.41-0.43,0.929-0.71,1.679-0.71c1.35,0,2.439,0.8,2.439,2.199v0.021c0,1.389-1.129,2.379-2.599,2.379
		C63.029,139.12,62.409,138.85,61.939,138.379z M65.257,136.792v-0.021c0-0.7-0.56-1.22-1.429-1.22c-0.869,0-1.419,0.56-1.419,1.229
		v0.02c0,0.711,0.58,1.25,1.449,1.25C64.728,138.051,65.257,137.511,65.257,136.792z"/>
	<path fill="#B3B3B3" d="M67.65,135.521V135.5c0-1.998,1.219-3.617,3.058-3.617c1.829,0,3.039,1.6,3.039,3.599v0.021
		c0,1.998-1.22,3.617-3.059,3.617S67.65,137.521,67.65,135.521z M72.477,135.521V135.5c0-1.379-0.709-2.508-1.789-2.508
		c-1.079,0-1.769,1.1-1.769,2.488v0.02c0,1.379,0.7,2.51,1.789,2.51S72.477,136.892,72.477,135.521z"/>
	<path fill="#B3B3B3" d="M77.68,132.004h1.329l1.669,5.188l1.719-5.208h1.04l1.719,5.208l1.669-5.188h1.289l-2.429,7.045h-1.069
		l-1.719-5.026l-1.719,5.026h-1.06L77.68,132.004z"/>
</g>
<g>
	<path fill="#B3B3B3" d="M103.939,138.379c-0.53-0.528-0.85-1.258-0.85-2.668v-0.021c0-2.14,1.02-3.808,2.998-3.808
		c0.91,0,1.529,0.289,2.139,0.779l-0.66,0.949c-0.49-0.38-0.899-0.609-1.52-0.609c-1.219,0-1.659,1.27-1.679,2.229
		c0.41-0.43,0.929-0.71,1.679-0.71c1.35,0,2.439,0.8,2.439,2.199v0.021c0,1.389-1.129,2.379-2.599,2.379
		C105.029,139.12,104.409,138.85,103.939,138.379z M107.257,136.792v-0.021c0-0.7-0.56-1.22-1.429-1.22
		c-0.869,0-1.419,0.56-1.419,1.229v0.02c0,0.711,0.58,1.25,1.449,1.25C106.728,138.051,107.257,137.511,107.257,136.792z"/>
	<path fill="#B3B3B3" d="M109.65,135.521V135.5c0-1.998,1.219-3.617,3.058-3.617c1.829,0,3.039,1.6,3.039,3.599v0.021
		c0,1.998-1.22,3.617-3.059,3.617S109.65,137.521,109.65,135.521z M114.477,135.521V135.5c0-1.379-0.709-2.508-1.789-2.508
		c-1.079,0-1.769,1.1-1.769,2.488v0.02c0,1.379,0.7,2.51,1.789,2.51S114.477,136.892,114.477,135.521z"/>
	<path fill="#B3B3B3" d="M119.68,132.004h1.329l1.669,5.188l1.719-5.208h1.04l1.719,5.208l1.669-5.188h1.289l-2.429,7.045h-1.069
		l-1.719-5.026l-1.719,5.026h-1.06L119.68,132.004z"/>
</g>
<g>
	<path fill="#B3B3B3" d="M203.141,137.891l0.858-0.801c0.5,0.591,1.06,0.921,1.839,0.921c0.689,0,1.209-0.421,1.209-1.06v-0.021
		c0-0.689-0.629-1.079-1.607-1.079h-0.569l-0.2-0.771l1.889-2.009h-3.027v-1.069h4.627v0.92l-1.948,1.998
		c1.06,0.131,2.06,0.67,2.06,1.959v0.021c0,1.289-0.99,2.219-2.449,2.219C204.6,139.12,203.729,138.61,203.141,137.891z"/>
	<path fill="#B3B3B3" d="M209.46,135.521V135.5c0-1.998,1.22-3.617,3.058-3.617c1.83,0,3.039,1.6,3.039,3.599v0.021
		c0,1.998-1.22,3.617-3.059,3.617S209.46,137.521,209.46,135.521z M214.287,135.521V135.5c0-1.379-0.709-2.508-1.789-2.508
		c-1.079,0-1.77,1.1-1.77,2.488v0.02c0,1.379,0.699,2.51,1.789,2.51C213.607,138.011,214.287,136.892,214.287,135.521z"/>
	<path fill="#B3B3B3" d="M219.49,132.004h1.328l1.67,5.188l1.719-5.208h1.039l1.72,5.208l1.669-5.188h1.289l-2.429,7.045h-1.069
		l-1.719-5.026l-1.719,5.026h-1.061L219.49,132.004z"/>
</g>
<g>
	<path fill="#B3B3B3" d="M246.141,137.891l0.858-0.801c0.5,0.591,1.06,0.921,1.839,0.921c0.689,0,1.209-0.421,1.209-1.06v-0.021
		c0-0.689-0.629-1.079-1.607-1.079h-0.569l-0.2-0.771l1.889-2.009h-3.027v-1.069h4.627v0.92l-1.948,1.998
		c1.06,0.131,2.06,0.67,2.06,1.959v0.021c0,1.289-0.99,2.219-2.449,2.219C247.6,139.12,246.729,138.61,246.141,137.891z"/>
	<path fill="#B3B3B3" d="M252.46,135.521V135.5c0-1.998,1.22-3.617,3.058-3.617c1.83,0,3.039,1.6,3.039,3.599v0.021
		c0,1.998-1.22,3.617-3.059,3.617S252.46,137.521,252.46,135.521z M257.287,135.521V135.5c0-1.379-0.709-2.508-1.789-2.508
		c-1.079,0-1.77,1.1-1.77,2.488v0.02c0,1.379,0.699,2.51,1.789,2.51C256.607,138.011,257.287,136.892,257.287,135.521z"/>
	<path fill="#B3B3B3" d="M262.49,132.004h1.328l1.67,5.188l1.719-5.208h1.039l1.72,5.208l1.669-5.188h1.289l-2.429,7.045h-1.069
		l-1.719-5.026l-1.719,5.026h-1.061L262.49,132.004z"/>
</g>
<g id="Layer_3" display="none">
	<text transform="matrix(1 0 0 1 68.6807 124.5005)" display="inline" font-family="'Gotham-Bold'" font-size="16">A</text>
	<text transform="matrix(1 0 0 1 111.2241 124.5005)" display="inline" font-family="'Gotham-Bold'" font-size="16">B</text>
	<text transform="matrix(1 0 0 1 211.0957 124.5005)" display="inline" font-family="'Gotham-Bold'" font-size="16">C</text>
	<text transform="matrix(1 0 0 1 253.7441 124.5005)" display="inline" font-family="'Gotham-Bold'" font-size="16">D</text>
	
		<text transform="matrix(1 0 0 1 61.0195 138.5005)" display="inline" fill="#B3B3B3" font-family="'Gotham-Medium'" font-size="10">60 W</text>
	<text transform="matrix(1 0 0 1 103.02 138.5005)" display="inline" fill="#B3B3B3" font-family="'Gotham-Medium'" font-size="10">60 W</text>
	<text transform="matrix(1 0 0 1 203.21 138.5005)" display="inline" fill="#B3B3B3" font-family="'Gotham-Medium'" font-size="10">30 W</text>
	<text transform="matrix(1 0 0 1 246.21 138.5005)" display="inline" fill="#B3B3B3" font-family="'Gotham-Medium'" font-size="10">30 W</text>
</g>
<g id="Layer_2" display="none">
	
		<image display="inline" overflow="visible" opacity="0.4" enable-background="new    " width="2000" height="796" xlink:href="../Renders/4CHConnectionsRender.16.png"  transform="matrix(0.16 0 0 0.16 0 -25.1802)">
	</image>
</g>
</svg>
