<?xml version="1.0" encoding="utf-8"?>
<!-- Generator: Adobe Illustrator 15.1.0, SVG Export Plug-In . SVG Version: 6.00 Build 0)  -->
<!DOCTYPE svg PUBLIC "-//W3C//DTD SVG 1.1//EN" "http://www.w3.org/Graphics/SVG/1.1/DTD/svg11.dtd">
<svg version="1.1" id="Layer_2" xmlns="http://www.w3.org/2000/svg" xmlns:xlink="http://www.w3.org/1999/xlink" x="0px" y="0px"
	 width="22px" height="22px" viewBox="0 0 22 22" enable-background="new 0 0 22 22" xml:space="preserve">
<g>
	<path fill="#000000" d="M4.217,16.65c-1.303-1.325-2.205-3.041-2.548-4.866C1.321,9.959,1.514,8.032,2.239,6.32
		c0.717-1.715,1.955-3.206,3.503-4.232c1.545-1.034,3.4-1.59,5.259-1.587c1.858-0.002,3.713,0.555,5.258,1.589
		c1.55,1.028,2.785,2.519,3.503,4.234c0.725,1.712,0.916,3.64,0.567,5.464c-0.345,1.827-1.246,3.541-2.55,4.866l-0.008,0.008
		c-0.289,0.295-0.766,0.3-1.061,0.009c-0.295-0.29-0.3-0.767-0.009-1.062c0.001,0,0.005-0.006,0.007-0.006
		c2.236-2.22,2.918-5.812,1.668-8.7C17.175,3.986,14.189,1.958,10.963,2c-1.495,0-3.104,0.466-4.39,1.336
		C5.269,4.201,4.225,5.459,3.622,6.901c-0.61,1.437-0.772,3.066-0.479,4.603c0.299,1.548,1.021,2.953,2.169,4.121
		c0.291,0.296,0.286,0.771-0.009,1.061c-0.295,0.291-0.77,0.287-1.06-0.009L4.217,16.65z"/>
</g>
<g>
	<path fill="#000000" d="M6.249,14.188C4.615,12.38,4.201,9.602,5.228,7.394C6.207,5.165,8.562,3.637,11,3.667
		c2.438-0.03,4.792,1.499,5.771,3.727c1.026,2.207,0.614,4.986-1.02,6.793l-0.013,0.015c-0.277,0.308-0.753,0.331-1.06,0.054
		c-0.308-0.277-0.332-0.752-0.054-1.061l0,0c1.247-1.375,1.56-3.502,0.776-5.183C14.654,6.311,12.859,5.143,11,5.167
		C9.14,5.143,7.344,6.311,6.595,8.012c-0.772,1.692-0.49,3.782,0.8,5.208C7.673,13.527,7.649,14,7.342,14.279
		c-0.307,0.277-0.781,0.254-1.059-0.053l0,0L6.249,14.188z"/>
</g>
<g>
	<path fill="#000000" d="M8.312,11.675c-0.607-0.953-0.63-2.229-0.08-3.212c0.54-0.993,1.642-1.634,2.769-1.629
		c1.127-0.004,2.229,0.639,2.769,1.631c0.551,0.982,0.526,2.259-0.082,3.211c-0.225,0.35-0.688,0.451-1.037,0.229
		c-0.344-0.221-0.445-0.676-0.234-1.023c0.157-0.259,0.242-0.523,0.25-0.852c0.01-0.271-0.068-0.582-0.207-0.834
		c-0.146-0.256-0.357-0.48-0.613-0.627c-0.127-0.077-0.264-0.135-0.406-0.171c-0.082-0.025-0.133-0.031-0.164-0.038
		c-0.001-0.007-0.058-0.013-0.14-0.015l-0.21-0.011c-0.018,0,0.142,0.004,0.074,0.002h-0.002h-0.003l-0.007,0.001l-0.014,0.001
		l-0.028,0.002L10.89,8.342c-0.038,0-0.075,0.002-0.111,0.011c-0.073,0.009-0.146,0.021-0.216,0.043
		c-0.143,0.036-0.279,0.093-0.405,0.17C9.9,8.712,9.689,8.937,9.543,9.192c-0.274,0.532-0.305,1.148,0.068,1.734
		c0.222,0.349,0.119,0.812-0.23,1.034c-0.349,0.222-0.812,0.119-1.034-0.229L8.312,11.675z"/>
</g>
<polygon fill="#000000" points="18,20.5 11,12 4,20.5 "/>
</svg>
