<?xml version="1.0" encoding="utf-8"?>
<!-- Generator: Adobe Illustrator 15.1.0, SVG Export Plug-In . SVG Version: 6.00 Build 0)  -->
<!DOCTYPE svg PUBLIC "-//W3C//DTD SVG 1.1//EN" "http://www.w3.org/Graphics/SVG/1.1/DTD/svg11.dtd">
<svg version="1.1" id="Layer_1" xmlns="http://www.w3.org/2000/svg" xmlns:xlink="http://www.w3.org/1999/xlink" x="0px" y="0px"
	 width="22px" height="22px" viewBox="0 0 22 22" enable-background="new 0 0 22 22" xml:space="preserve">
<g>
	<path fill="#000000" d="M11,0.5C5.201,0.5,0.5,5.201,0.5,11c0,5.8,4.701,10.5,10.5,10.5c5.8,0,10.5-4.7,10.5-10.5
		C21.5,5.201,16.8,0.5,11,0.5z M10.5,3c0-0.276,0.224-0.5,0.5-0.5s0.5,0.224,0.5,0.5v3c0,0.276-0.224,0.5-0.5,0.5S10.5,6.276,10.5,6
		V3z M6,11.5H3c-0.276,0-0.5-0.224-0.5-0.5s0.224-0.5,0.5-0.5h3c0.276,0,0.5,0.224,0.5,0.5S6.276,11.5,6,11.5z M11.5,19
		c0,0.275-0.224,0.5-0.5,0.5s-0.5-0.225-0.5-0.5v-3c0-0.275,0.224-0.5,0.5-0.5s0.5,0.225,0.5,0.5V19z M11,12.5
		c-0.829,0-1.5-0.67-1.5-1.5c0-0.829,0.671-1.5,1.5-1.5s1.5,0.671,1.5,1.5C12.5,11.83,11.829,12.5,11,12.5z M19,11.5h-3
		c-0.275,0-0.5-0.224-0.5-0.5s0.225-0.5,0.5-0.5h3c0.275,0,0.5,0.224,0.5,0.5S19.275,11.5,19,11.5z"/>
</g>
</svg>
