<?xml version="1.0" encoding="utf-8"?>
<!-- Generator: Adobe Illustrator 15.1.0, SVG Export Plug-In . SVG Version: 6.00 Build 0)  -->
<!DOCTYPE svg PUBLIC "-//W3C//DTD SVG 1.1//EN" "http://www.w3.org/Graphics/SVG/1.1/DTD/svg11.dtd">
<svg version="1.1" id="Layer_2" xmlns="http://www.w3.org/2000/svg" xmlns:xlink="http://www.w3.org/1999/xlink" x="0px" y="0px"
	 width="22px" height="22px" viewBox="0 0 22 22" enable-background="new 0 0 22 22" xml:space="preserve">
<g>
	<g>
		
			<line fill="none" stroke="#000000" stroke-width="2" stroke-linecap="round" stroke-linejoin="round" stroke-miterlimit="10" x1="21" y1="7" x2="19.5" y2="7"/>
		
			<line fill="none" stroke="#000000" stroke-width="2" stroke-linecap="round" stroke-linejoin="round" stroke-miterlimit="10" x1="21" y1="11" x2="19.5" y2="11"/>
		
			<line fill="none" stroke="#000000" stroke-width="2" stroke-linecap="round" stroke-linejoin="round" stroke-miterlimit="10" x1="21" y1="15" x2="19.5" y2="15"/>
	</g>
	<g>
		
			<line fill="none" stroke="#000000" stroke-width="2" stroke-linecap="round" stroke-linejoin="round" stroke-miterlimit="10" x1="2.5" y1="7" x2="1" y2="7"/>
		
			<line fill="none" stroke="#000000" stroke-width="2" stroke-linecap="round" stroke-linejoin="round" stroke-miterlimit="10" x1="2.5" y1="11" x2="1" y2="11"/>
		
			<line fill="none" stroke="#000000" stroke-width="2" stroke-linecap="round" stroke-linejoin="round" stroke-miterlimit="10" x1="2.5" y1="15" x2="1" y2="15"/>
	</g>
</g>
<g>
	<g>
		
			<line fill="none" stroke="#000000" stroke-width="2" stroke-linecap="round" stroke-linejoin="round" stroke-miterlimit="10" x1="7" y1="1" x2="7" y2="2.5"/>
		
			<line fill="none" stroke="#000000" stroke-width="2" stroke-linecap="round" stroke-linejoin="round" stroke-miterlimit="10" x1="11" y1="1" x2="11" y2="2.5"/>
		
			<line fill="none" stroke="#000000" stroke-width="2" stroke-linecap="round" stroke-linejoin="round" stroke-miterlimit="10" x1="15" y1="1" x2="15" y2="2.5"/>
	</g>
	<g>
		
			<line fill="none" stroke="#000000" stroke-width="2" stroke-linecap="round" stroke-linejoin="round" stroke-miterlimit="10" x1="7" y1="19.5" x2="7" y2="21"/>
		
			<line fill="none" stroke="#000000" stroke-width="2" stroke-linecap="round" stroke-linejoin="round" stroke-miterlimit="10" x1="11" y1="19.5" x2="11" y2="21"/>
		
			<line fill="none" stroke="#000000" stroke-width="2" stroke-linecap="round" stroke-linejoin="round" stroke-miterlimit="10" x1="15" y1="19.5" x2="15" y2="21"/>
	</g>
</g>
<path fill="#000000" d="M17.5,2.5h-13c-1,0-2,1-2,2v13c0,1,1,2,2,2h13c1,0,2-1,2-2v-13C19.5,3.5,18.5,2.5,17.5,2.5z M16.164,11.747
	C16.021,11.876,14.713,13,13.25,13c-1.505,0-2.32-0.725-2.915-1.253C9.829,11.297,9.495,11,8.75,11c-0.598,0-1.366,0.557-1.588,0.75
	c-0.415,0.361-1.046,0.322-1.41-0.09c-0.364-0.413-0.328-1.042,0.084-1.408C5.98,10.125,7.287,9,8.75,9
	c1.505,0,2.32,0.724,2.914,1.252C12.171,10.703,12.505,11,13.25,11c0.598,0,1.366-0.555,1.588-0.75
	c0.414-0.36,1.045-0.324,1.41,0.09C16.613,10.753,16.576,11.381,16.164,11.747z"/>
</svg>
