<?xml version="1.0" encoding="utf-8"?>
<!-- Generator: Adobe Illustrator 15.1.0, SVG Export Plug-In . SVG Version: 6.00 Build 0)  -->
<!DOCTYPE svg PUBLIC "-//W3C//DTD SVG 1.1//EN" "http://www.w3.org/Graphics/SVG/1.1/DTD/svg11.dtd">
<svg version="1.1" id="Layer_1" xmlns="http://www.w3.org/2000/svg" xmlns:xlink="http://www.w3.org/1999/xlink" x="0px" y="0px"
	 width="22px" height="22px" viewBox="0 0 22 22" enable-background="new 0 0 22 22" xml:space="preserve">
<g>
	<g>
		<path d="M11,4.5c3.584,0,6.5,2.916,6.5,6.5s-2.916,6.5-6.5,6.5S4.5,14.584,4.5,11S7.416,4.5,11,4.5 M11,3.5
			c-4.136,0-7.5,3.364-7.5,7.5c0,4.135,3.364,7.5,7.5,7.5c4.135,0,7.5-3.365,7.5-7.5C18.5,6.864,15.135,3.5,11,3.5L11,3.5z"/>
	</g>
	<path d="M11,0.5C5.201,0.5,0.5,5.201,0.5,11c0,5.8,4.701,10.5,10.5,10.5c5.8,0,10.5-4.7,10.5-10.5C21.5,5.201,16.8,0.5,11,0.5z
		 M11,19.5c-4.687,0-8.5-3.813-8.5-8.5c0-4.687,3.812-8.5,8.5-8.5c4.688,0,8.5,3.812,8.5,8.5C19.5,15.687,15.687,19.5,11,19.5z"/>
</g>
</svg>
