<?xml version="1.0" encoding="utf-8"?>
<!-- Generator: Adobe Illustrator 15.1.0, SVG Export Plug-In . SVG Version: 6.00 Build 0)  -->
<!DOCTYPE svg PUBLIC "-//W3C//DTD SVG 1.1//EN" "http://www.w3.org/Graphics/SVG/1.1/DTD/svg11.dtd">
<svg version="1.1" id="Layer_1" xmlns="http://www.w3.org/2000/svg" xmlns:xlink="http://www.w3.org/1999/xlink" x="0px" y="0px"
	 width="22px" height="22px" viewBox="0 0 22 22" enable-background="new 0 0 22 22" xml:space="preserve">
<path fill="#000000" d="M11,0.5C5.201,0.5,0.5,5.201,0.5,11c0,5.8,4.701,10.5,10.5,10.5c5.8,0,10.5-4.7,10.5-10.5
	C21.5,5.201,16.8,0.5,11,0.5z M11,18.5c-0.829,0-1.5-0.67-1.5-1.5s0.671-1.5,1.5-1.5c0.83,0,1.5,0.67,1.5,1.5S11.83,18.5,11,18.5z
	 M12,13.389V14.5h-2v-2c0-0.553,0.448-1,1-1c1.609,0,2.5-1.478,2.5-2.5c0-1.229-0.936-2.5-2.5-2.5C9.359,6.5,8.5,7.758,8.5,9
	c0,0.552-0.448,1-1,1s-1-0.448-1-1c0-2.565,1.935-4.5,4.5-4.5c2.816,0,4.5,2.288,4.5,4.5C15.5,10.892,14.13,12.898,12,13.389z"/>
</svg>
