<?xml version="1.0" encoding="utf-8"?>
<!-- Generator: Adobe Illustrator 15.1.0, SVG Export Plug-In . SVG Version: 6.00 Build 0)  -->
<!DOCTYPE svg PUBLIC "-//W3C//DTD SVG 1.1//EN" "http://www.w3.org/Graphics/SVG/1.1/DTD/svg11.dtd">
<svg version="1.1" id="Layer_2" xmlns="http://www.w3.org/2000/svg" xmlns:xlink="http://www.w3.org/1999/xlink" x="0px" y="0px"
	 width="22px" height="22px" viewBox="0 0 22 22" enable-background="new 0 0 22 22" xml:space="preserve">
<g>
	<path d="M4.564,10h9.022l-2.293-2.293c-0.391-0.391-0.391-1.023,0-1.414c0.391-0.391,1.023-0.391,1.414,0L17.414,11l-4.707,4.707
		c-0.391,0.391-1.023,0.391-1.414,0c-0.391-0.391-0.391-1.023,0-1.414L13.586,12H4.564c0.496,4.223,4.08,7.5,8.436,7.5
		c4.695,0,8.5-3.805,8.5-8.5S17.695,2.5,13,2.5C8.644,2.5,5.06,5.777,4.564,10z"/>
	<path d="M4.564,10H1.5c-0.552,0-1,0.447-1,1c0,0.552,0.448,1,1,1h3.064C4.525,11.671,4.5,11.339,4.5,11S4.525,10.328,4.564,10z"/>
</g>
</svg>
