<?xml version="1.0" encoding="utf-8"?>
<!-- Generator: Adobe Illustrator 15.1.0, SVG Export Plug-In . SVG Version: 6.00 Build 0)  -->
<!DOCTYPE svg PUBLIC "-//W3C//DTD SVG 1.1//EN" "http://www.w3.org/Graphics/SVG/1.1/DTD/svg11.dtd">
<svg version="1.1" id="Layer_2" xmlns="http://www.w3.org/2000/svg" xmlns:xlink="http://www.w3.org/1999/xlink" x="0px" y="0px"
	 width="22px" height="22px" viewBox="0 0 22 22" enable-background="new 0 0 22 22" xml:space="preserve">
<g>
	<path fill="#000000" d="M6.5,11.5v-2c0-1.104,0.896-2,2-2h11c1.104,0,2,0.896,2,2v8c0,1.104-0.896,2-2,2h-11c-1.104,0-2-0.896-2-2
		v-2h2v2l0,0h11l0,0v-8l0,0h-11l0,0v2H6.5z"/>
</g>
<g>
	<path fill="#000000" d="M13.5,6.5v-2l0,0h-11l0,0v8l0,0h11l0,0v-2h2v2c0,1.104-0.896,2-2,2h-11c-1.104,0-2-0.896-2-2v-8
		c0-1.104,0.896-2,2-2h11c1.104,0,2,0.896,2,2v2H13.5z"/>
</g>
</svg>
