<?xml version="1.0" encoding="utf-8"?>
<!-- Generator: Adobe Illustrator 15.1.0, SVG Export Plug-In . SVG Version: 6.00 Build 0)  -->
<!DOCTYPE svg PUBLIC "-//W3C//DTD SVG 1.1//EN" "http://www.w3.org/Graphics/SVG/1.1/DTD/svg11.dtd">
<svg version="1.1" id="Layer_1" xmlns="http://www.w3.org/2000/svg" xmlns:xlink="http://www.w3.org/1999/xlink" x="0px" y="0px"
	 width="22px" height="22px" viewBox="0 0 22 22" enable-background="new 0 0 22 22" xml:space="preserve">
<g>
	<path fill="#000000" d="M19.501,11.051l-0.015-0.516l-0.028-0.375c-0.028-0.269-0.067-0.55-0.121-0.821
		c-0.108-0.545-0.271-1.079-0.481-1.592c-0.426-1.026-1.057-1.97-1.845-2.758C15.436,3.403,13.234,2.491,11,2.5
		c-0.552,0.002-1.002-0.444-1.004-0.996C9.994,0.952,10.439,0.502,10.991,0.5H11c2.754-0.013,5.486,1.12,7.425,3.075
		C20.38,5.514,21.514,8.246,21.5,11v0.03c-0.003,0.552-0.452,0.998-1.005,0.996C19.954,12.021,19.516,11.588,19.501,11.051z"/>
</g>
</svg>
