<?xml version="1.0" encoding="utf-8"?>
<!-- Generator: Adobe Illustrator 15.1.0, SVG Export Plug-In . SVG Version: 6.00 Build 0)  -->
<!DOCTYPE svg PUBLIC "-//W3C//DTD SVG 1.1//EN" "http://www.w3.org/Graphics/SVG/1.1/DTD/svg11.dtd">
<svg version="1.1" id="Layer_2" xmlns="http://www.w3.org/2000/svg" xmlns:xlink="http://www.w3.org/1999/xlink" x="0px" y="0px"
	 width="22px" height="22px" viewBox="0 0 22 22" enable-background="new 0 0 22 22" xml:space="preserve">
<path d="M11,0.5C5.2,0.5,0.5,5.201,0.5,11c0,2.073,0.607,4,1.646,5.628L1,21l4.372-1.146C7,20.893,8.927,21.5,11,21.5
	c5.799,0,10.5-4.7,10.5-10.5C21.5,5.201,16.799,0.5,11,0.5z M13.5,16.5l-3-3c0,0-1,0-2,0s-1-1-1-1v-3c0,0,0-1,1-1s2,0,2,0l3-3V16.5z
	"/>
</svg>
