<?xml version="1.0" encoding="utf-8"?>
<!-- Generator: Adobe Illustrator 15.1.0, SVG Export Plug-In . SVG Version: 6.00 Build 0)  -->
<!DOCTYPE svg PUBLIC "-//W3C//DTD SVG 1.1//EN" "http://www.w3.org/Graphics/SVG/1.1/DTD/svg11.dtd">
<svg version="1.1" id="Layer_2" xmlns="http://www.w3.org/2000/svg" xmlns:xlink="http://www.w3.org/1999/xlink" x="0px" y="0px"
	 width="22px" height="22px" viewBox="0 0 22 22" enable-background="new 0 0 22 22" xml:space="preserve">
<path fill="#000000" d="M21.5,11c0-5.799-4.7-10.5-10.5-10.5C5.201,0.5,0.5,5.201,0.5,11c0,5.8,4.701,10.5,10.5,10.5
	c2.073,0,4-0.607,5.628-1.646L21,21l-1.146-4.372C20.893,15,21.5,13.073,21.5,11z M12,15.5c0,0.553-0.447,1-1,1
	c-0.552,0-1-0.447-1-1V11c0-0.552,0.448-1,1-1c0.553,0,1,0.448,1,1V15.5z M11,8.5c-0.828,0-1.5-0.672-1.5-1.5s0.672-1.5,1.5-1.5
	s1.5,0.672,1.5,1.5S11.828,8.5,11,8.5z"/>
</svg>
