<?xml version="1.0" encoding="utf-8"?>
<!-- Generator: Adobe Illustrator 15.1.0, SVG Export Plug-In . SVG Version: 6.00 Build 0)  -->
<!DOCTYPE svg PUBLIC "-//W3C//DTD SVG 1.1//EN" "http://www.w3.org/Graphics/SVG/1.1/DTD/svg11.dtd">
<svg version="1.1" id="Layer_1" xmlns="http://www.w3.org/2000/svg" xmlns:xlink="http://www.w3.org/1999/xlink" x="0px" y="0px"
	 width="22px" height="22px" viewBox="0 0 22 22" enable-background="new 0 0 22 22" xml:space="preserve">
<path d="M18.5,6.5c-0.426,0-2.119,0-4,0v5.586l1.293-1.293c0.391-0.391,1.023-0.391,1.414,0s0.391,1.023,0,1.414L13.5,15.914
	l-3.707-3.707c-0.391-0.391-0.391-1.023,0-1.414s1.023-0.391,1.414,0l1.293,1.293V6.5c-1.881,0-3.575,0-4,0c-1,0-2,1-2,2
	s0,8.999,0,10c0,1,1,2,2,2s9,0,10,0s2-1.001,2-2s0-9,0-10S19.5,6.5,18.5,6.5z"/>
<path d="M11,1.5c-2.738,0-6.764,0-7.5,0c-1,0-2,1-2,2c0,1.001,0,9,0,10s1,2,2,2c0.216,0,0.771,0,1.5,0v-7C5,6.668,6.668,5,8.5,5H11
	V1.5z"/>
<path d="M14.5,6.5v-5c0-0.552-0.447-1-1-1s-1,0.448-1,1v5H14.5z"/>
</svg>
