<?xml version="1.0" encoding="utf-8"?>
<!-- Generator: Adobe Illustrator 15.1.0, SVG Export Plug-In . SVG Version: 6.00 Build 0)  -->
<!DOCTYPE svg PUBLIC "-//W3C//DTD SVG 1.1//EN" "http://www.w3.org/Graphics/SVG/1.1/DTD/svg11.dtd">
<svg version="1.1" id="Layer_1" xmlns="http://www.w3.org/2000/svg" xmlns:xlink="http://www.w3.org/1999/xlink" x="0px" y="0px"
	 width="22px" height="22px" viewBox="0 0 22 22" enable-background="new 0 0 22 22" xml:space="preserve">
<path fill="#000000" d="M17,6.5c-0.529,0-1.027,0.108-1.5,0.275c0,0,0-2.275,0-3.275s-1-2-2-2s-9,0-10,0s-2,1-2,2s0,3.275,0,3.275
	C1.971,6.608,2.471,6.5,3,6.5c2.485,0,4.5,2.015,4.5,4.5c0,2.484-2.015,4.5-4.5,4.5c-0.529,0-1.029-0.107-1.5-0.275
	c0,0,0,2.275,0,3.275s1,2,2,2s9,0,10,0s2-1,2-2s0-3.275,0-3.275c0.473,0.168,0.971,0.275,1.5,0.275c2.484,0,4.5-2.016,4.5-4.5
	C21.5,8.515,19.484,6.5,17,6.5z"/>
</svg>
