<?xml version="1.0" encoding="utf-8"?>
<!-- Generator: Adobe Illustrator 15.1.0, SVG Export Plug-In . SVG Version: 6.00 Build 0)  -->
<!DOCTYPE svg PUBLIC "-//W3C//DTD SVG 1.1//EN" "http://www.w3.org/Graphics/SVG/1.1/DTD/svg11.dtd">
<svg version="1.1" id="Layer_1" xmlns="http://www.w3.org/2000/svg" xmlns:xlink="http://www.w3.org/1999/xlink" x="0px" y="0px"
	 width="22px" height="22px" viewBox="0 0 22 22" enable-background="new 0 0 22 22" xml:space="preserve">
<g>
	<path fill="#000000" d="M18.422,3.573c1.957,1.938,3.092,4.671,3.078,7.425c0.014,2.754-1.119,5.486-3.076,7.426l-0.004,0.004
		c-0.295,0.293-0.77,0.289-1.061-0.005c-0.293-0.294-0.289-0.769,0.004-1.062c1.68-1.664,2.646-3.997,2.637-6.363
		c-0.001-1.183-0.232-2.357-0.686-3.445c-0.461-1.099-1.094-2.06-1.979-2.945c-0.293-0.292-0.293-0.767,0-1.06
		c0.292-0.292,0.767-0.292,1.06-0.003L18.422,3.573z"/>
</g>
<g>
	<path fill="#000000" d="M15.452,6.542c1.174,1.163,1.854,2.803,1.848,4.456c0.009,1.652-0.671,3.293-1.845,4.457l-0.004,0.004
		c-0.294,0.291-0.77,0.289-1.061-0.005s-0.289-0.769,0.004-1.06c0.896-0.896,1.41-2.136,1.401-3.396
		c-0.001-0.633-0.125-1.258-0.362-1.837c-0.25-0.591-0.572-1.087-1.066-1.583c-0.293-0.293-0.292-0.768,0.001-1.061
		c0.292-0.292,0.764-0.292,1.057-0.002L15.452,6.542z"/>
</g>
<g>
	<g>
		<path fill="#000000" d="M3.578,18.4c-1.957-1.938-3.092-4.672-3.078-7.424C0.486,8.222,1.619,5.49,3.576,3.55L3.58,3.546
			c0.295-0.293,0.77-0.289,1.061,0.005C4.934,3.845,4.93,4.32,4.637,4.613C2.957,6.277,1.991,8.61,2,10.976
			c0.001,1.183,0.232,2.357,0.686,3.445c0.461,1.099,1.094,2.06,1.979,2.945c0.293,0.292,0.293,0.767,0,1.06
			c-0.292,0.292-0.767,0.292-1.06,0.004L3.578,18.4z"/>
	</g>
	<g>
		<path fill="#000000" d="M6.548,15.432C5.374,14.27,4.694,12.629,4.7,10.976C4.691,9.324,5.371,7.683,6.545,6.519l0.004-0.004
			C6.843,6.224,7.319,6.226,7.61,6.52s0.289,0.769-0.004,1.06c-0.896,0.895-1.41,2.135-1.402,3.396
			c0.001,0.631,0.125,1.256,0.363,1.836c0.25,0.592,0.572,1.086,1.066,1.582c0.293,0.293,0.292,0.77-0.001,1.062
			c-0.292,0.292-0.764,0.292-1.057,0.002L6.548,15.432z"/>
	</g>
</g>
<circle fill="#000000" cx="11" cy="11" r="1.5"/>
<line fill="none" stroke="#000000" stroke-width="2" stroke-linecap="round" stroke-miterlimit="10" x1="11" y1="11" x2="11" y2="20.5"/>
</svg>
