<?xml version="1.0" encoding="utf-8"?>
<!-- Generator: Adobe Illustrator 15.1.0, SVG Export Plug-In . SVG Version: 6.00 Build 0)  -->
<!DOCTYPE svg PUBLIC "-//W3C//DTD SVG 1.1//EN" "http://www.w3.org/Graphics/SVG/1.1/DTD/svg11.dtd">
<svg version="1.1" id="Layer_2" xmlns="http://www.w3.org/2000/svg" xmlns:xlink="http://www.w3.org/1999/xlink" x="0px" y="0px"
	 width="22px" height="22px" viewBox="0 0 22 22" enable-background="new 0 0 22 22" xml:space="preserve">
<path fill="#000000" d="M10.999,0.5L0.5,11L11,21.5L21.5,11L10.999,0.5z M9.5,4.5L11,3l1.5,1.5c0.195,0.195,0.195,0.512,0,0.707
	s-0.512,0.195-0.707,0L11,4.414l-0.793,0.793c-0.195,0.195-0.512,0.195-0.707,0S9.305,4.695,9.5,4.5z M5.207,11.793
	c0.195,0.195,0.195,0.512,0,0.707s-0.512,0.195-0.707,0L3,11l1.5-1.5c0.195-0.195,0.512-0.195,0.707,0s0.195,0.512,0,0.707L4.414,11
	L5.207,11.793z M12.5,17.5L11,19l-1.5-1.5c-0.195-0.195-0.195-0.512,0-0.707s0.512-0.195,0.707,0L11,17.586l0.793-0.793
	c0.195-0.195,0.512-0.195,0.707,0S12.695,17.305,12.5,17.5z M11,13.5c-1.381,0-2.5-1.119-2.5-2.5S9.619,8.5,11,8.5
	s2.5,1.119,2.5,2.5S12.381,13.5,11,13.5z M17.5,12.5c-0.195,0.195-0.512,0.195-0.707,0s-0.195-0.512,0-0.707L17.586,11l-0.793-0.793
	c-0.195-0.195-0.195-0.512,0-0.707s0.512-0.195,0.707,0L19,11L17.5,12.5z"/>
</svg>
