<?xml version="1.0" encoding="utf-8"?>
<!-- Generator: Adobe Illustrator 15.1.0, SVG Export Plug-In . SVG Version: 6.00 Build 0)  -->
<!DOCTYPE svg PUBLIC "-//W3C//DTD SVG 1.1//EN" "http://www.w3.org/Graphics/SVG/1.1/DTD/svg11.dtd">
<svg version="1.1" id="Layer_2" xmlns="http://www.w3.org/2000/svg" xmlns:xlink="http://www.w3.org/1999/xlink" x="0px" y="0px"
	 width="22px" height="22px" viewBox="0 0 22 22" enable-background="new 0 0 22 22" xml:space="preserve">
<path d="M1.5,18.5v-15l4,4c0,0,1,0,2,0s2,1,2,2s0,2,0,3s-1,2-2,2s-2,0-2,0L1.5,18.5z"/>
<g>
	<path d="M20.5,3.5v15l-4-4c0,0-1,0-2,0s-2-1-2-2s0-2,0-3s1-2,2-2s2,0,2,0L20.5,3.5z"/>
</g>
</svg>
