<?xml version="1.0" encoding="utf-8"?>
<!-- Generator: Adobe Illustrator 15.1.0, SVG Export Plug-In . SVG Version: 6.00 Build 0)  -->
<!DOCTYPE svg PUBLIC "-//W3C//DTD SVG 1.1//EN" "http://www.w3.org/Graphics/SVG/1.1/DTD/svg11.dtd">
<svg version="1.1" id="Layer_2" xmlns="http://www.w3.org/2000/svg" xmlns:xlink="http://www.w3.org/1999/xlink" x="0px" y="0px"
	 width="22px" height="22px" viewBox="0 0 22 22" enable-background="new 0 0 22 22" xml:space="preserve">
<path fill="#000000" d="M11,0.5C5.201,0.5,0.5,5.201,0.5,11c0,5.8,4.701,10.5,10.5,10.5c5.8,0,10.5-4.7,10.5-10.5
	C21.5,5.201,16.8,0.5,11,0.5z M10,3.5c0-0.552,0.448-1,1-1c0.553,0,1,0.448,1,1V11c0,0.553-0.447,1-1,1c-0.552,0-1-0.447-1-1V3.5z
	 M11,17.5c-3.59,0-6.5-2.911-6.5-6.5c0-2.704,1.651-5.021,4-6v2.262C7.295,8.07,6.5,9.443,6.5,11c0,2.48,2.019,4.5,4.5,4.5
	c2.48,0,4.5-2.02,4.5-4.5c0-1.557-0.795-2.93-2-3.738V5c2.35,0.98,4,3.296,4,6C17.5,14.589,14.589,17.5,11,17.5z"/>
</svg>
