<?xml version="1.0" encoding="utf-8"?>
<!-- Generator: Adobe Illustrator 15.1.0, SVG Export Plug-In . SVG Version: 6.00 Build 0)  -->
<!DOCTYPE svg PUBLIC "-//W3C//DTD SVG 1.1//EN" "http://www.w3.org/Graphics/SVG/1.1/DTD/svg11.dtd">
<svg version="1.1" id="Layer_2" xmlns="http://www.w3.org/2000/svg" xmlns:xlink="http://www.w3.org/1999/xlink" x="0px" y="0px"
	 width="22px" height="22px" viewBox="0 0 22 22" enable-background="new 0 0 22 22" xml:space="preserve">
<line fill="none" stroke="#000000" stroke-width="2" stroke-miterlimit="10" x1="14" y1="5.5" x2="14" y2="16.5"/>
<g>
	<path d="M2,8.5v5c0,0.414-0.336,0.75-0.75,0.75S0.5,13.914,0.5,13.5v-5c0-0.414,0.336-0.75,0.75-0.75S2,8.086,2,8.5z"/>
</g>
<g>
	<path d="M5,8.5v5c0,0.414-0.336,0.75-0.75,0.75S3.5,13.914,3.5,13.5v-5c0-0.414,0.336-0.75,0.75-0.75S5,8.086,5,8.5z"/>
</g>
<g>
	<path d="M8,8.5v5c0,0.414-0.336,0.75-0.75,0.75S6.5,13.914,6.5,13.5v-5c0-0.414,0.336-0.75,0.75-0.75S8,8.086,8,8.5z"/>
</g>
<g>
	<path d="M11,8.5v5c0,0.414-0.336,0.75-0.75,0.75S9.5,13.914,9.5,13.5v-5c0-0.414,0.336-0.75,0.75-0.75S11,8.086,11,8.5z"/>
</g>
<g>
	<path d="M18.5,8.5v5c0,0.414-0.336,0.75-0.75,0.75S17,13.914,17,13.5v-5c0-0.414,0.336-0.75,0.75-0.75S18.5,8.086,18.5,8.5z"/>
</g>
<g>
	<path d="M21.5,8.5v5c0,0.414-0.336,0.75-0.75,0.75S20,13.914,20,13.5v-5c0-0.414,0.336-0.75,0.75-0.75S21.5,8.086,21.5,8.5z"/>
</g>
<line fill="none" stroke="#000000" stroke-width="2" stroke-linecap="round" stroke-miterlimit="10" x1="10.5" y1="5.5" x2="17.5" y2="5.5"/>
<line fill="none" stroke="#000000" stroke-width="2" stroke-linecap="round" stroke-miterlimit="10" x1="10.5" y1="16.5" x2="17.5" y2="16.5"/>
</svg>
