<?xml version="1.0" encoding="utf-8"?>
<!-- Generator: Adobe Illustrator 15.1.0, SVG Export Plug-In . SVG Version: 6.00 Build 0)  -->
<!DOCTYPE svg PUBLIC "-//W3C//DTD SVG 1.1//EN" "http://www.w3.org/Graphics/SVG/1.1/DTD/svg11.dtd">
<svg version="1.1" id="Layer_1" xmlns="http://www.w3.org/2000/svg" xmlns:xlink="http://www.w3.org/1999/xlink" x="0px" y="0px"
	 width="22px" height="22px" viewBox="0 0 22 22" enable-background="new 0 0 22 22" xml:space="preserve">
<g>
	<path d="M16.978,17.046c1.251-1.25,2.024-2.733,2.359-4.385c0.327-1.64,0.157-3.382-0.482-4.914
		c-0.635-1.541-1.742-2.891-3.134-3.816C14.333,2.999,12.677,2.499,11,2.5c-0.552,0-1-0.447-1.001-0.999s0.449-1,1.001-1.001
		c2.062-0.003,4.122,0.618,5.834,1.77c1.717,1.144,3.081,2.806,3.868,4.712c0.793,1.904,1,4.045,0.597,6.068
		c-0.396,2.024-1.414,3.919-2.874,5.376l-0.035,0.035c-0.391,0.39-1.023,0.389-1.413-0.002S16.587,17.436,16.978,17.046z"/>
</g>
<g>
	<path d="M5.023,4.955c-1.251,1.25-2.024,2.734-2.36,4.384c-0.327,1.64-0.157,3.382,0.482,4.914c0.635,1.54,1.743,2.891,3.134,3.815
		C7.667,19.001,9.323,19.501,11,19.5c0.553,0,1,0.447,1.001,0.999c0,0.552-0.449,1-1.001,1.001c-2.063,0.003-4.122-0.618-5.833-1.77
		c-1.717-1.144-3.082-2.806-3.869-4.712c-0.792-1.904-1-4.045-0.597-6.067c0.397-2.024,1.414-3.919,2.874-5.376L3.61,3.541
		c0.391-0.39,1.024-0.389,1.414,0.001C5.414,3.933,5.413,4.565,5.023,4.955z"/>
</g>
<line fill="none" x1="0" y1="0" x2="21.5" y2="21.5"/>
<g>
	<path d="M2.5,2h4l0,0l0,0v4c0,0.414-0.336,0.75-0.75,0.75S5,6.414,5,6V2l1.5,1.5h-4c-0.414,0-0.75-0.336-0.75-0.75S2.086,2,2.5,2z"
		/>
</g>
<g>
	<path d="M19.5,20h-4l0,0l0,0v-4c0-0.414,0.336-0.75,0.75-0.75S17,15.586,17,16v4l-1.5-1.5h4c0.414,0,0.75,0.336,0.75,0.75
		S19.914,20,19.5,20z"/>
</g>
<circle cx="11" cy="11" r="5.5"/>
</svg>
