<?xml version="1.0" encoding="utf-8"?>
<!-- Generator: Adobe Illustrator 15.1.0, SVG Export Plug-In . SVG Version: 6.00 Build 0)  -->
<!DOCTYPE svg PUBLIC "-//W3C//DTD SVG 1.1//EN" "http://www.w3.org/Graphics/SVG/1.1/DTD/svg11.dtd">
<svg version="1.1" id="Layer_2" xmlns="http://www.w3.org/2000/svg" xmlns:xlink="http://www.w3.org/1999/xlink" x="0px" y="0px"
	 width="22px" height="22px" viewBox="0 0 22 22" enable-background="new 0 0 22 22" xml:space="preserve">
<g>
	<path d="M7.5,10.5H6.565c-0.076,0.001-0.333,0.002-0.392,0.012c-0.093,0.004-0.221,0.019-0.333,0.034
		c-0.46,0.062-0.884,0.2-1.25,0.402c-0.735,0.403-1.24,1.083-1.459,1.955c-0.055,0.218-0.093,0.445-0.113,0.68
		C2.998,13.81,3,14.052,3,14.39v1.87V20c0,0.414-0.336,0.75-0.75,0.75S1.5,20.414,1.5,20v-3.74v-1.87
		c-0.011-0.622,0.017-1.251,0.177-1.855c0.292-1.211,1.083-2.306,2.188-2.9C4.411,9.333,5.015,9.143,5.633,9.06
		C6.251,8.971,6.877,9.008,7.5,9c0.414-0.005,0.754,0.326,0.76,0.74c0.005,0.414-0.326,0.754-0.74,0.76c-0.002,0-0.004,0-0.006,0
		H7.5z"/>
</g>
<g>
	<path d="M7.5,13.5H6.869H6.553c0.122-0.006-0.262,0.011-0.121,0.013c0.07-0.02-0.153,0.062-0.24,0.167
		c-0.113,0.109-0.185,0.255-0.188,0.302C6,13.997,6.006,13.992,6,14.005v0.315v0.632V20c0,0.414-0.336,0.75-0.75,0.75
		S4.5,20.414,4.5,20v-5.048c0.015-0.42-0.033-0.844,0.033-1.26c0.081-0.415,0.312-0.789,0.609-1.084
		c0.302-0.289,0.679-0.517,1.097-0.584C6.657,11.976,7.08,12.011,7.5,12c0.414-0.011,0.759,0.316,0.77,0.73s-0.316,0.759-0.73,0.77
		c-0.005,0-0.011,0-0.016,0H7.5z"/>
</g>
<path d="M20.5,21L15,15.5h-3.5c-1,0-2-1-2-2v-5c0-1,1-2,2-2H15L20.5,1V21z"/>
</svg>
