<?xml version="1.0" encoding="utf-8"?>
<!-- Generator: Adobe Illustrator 15.1.0, SVG Export Plug-In . SVG Version: 6.00 Build 0)  -->
<!DOCTYPE svg PUBLIC "-//W3C//DTD SVG 1.1//EN" "http://www.w3.org/Graphics/SVG/1.1/DTD/svg11.dtd">
<svg version="1.1" id="Layer_1" xmlns="http://www.w3.org/2000/svg" xmlns:xlink="http://www.w3.org/1999/xlink" x="0px" y="0px"
	 width="22px" height="22px" viewBox="0 0 22 22" enable-background="new 0 0 22 22" xml:space="preserve">
<path d="M18.5,1.5c-1,0-14,0-15,0s-2,1-2,2s0,14,0,15s1,2,2,2s14,0,15,0s2-1,2-2s0-14,0-15S19.5,1.5,18.5,1.5z M11.5,17.5
	c0,0.276-0.224,0.5-0.5,0.5s-0.5-0.224-0.5-0.5v-6h-6C4.224,11.5,4,11.276,4,11s0.224-0.5,0.5-0.5h6v-6C10.5,4.224,10.724,4,11,4
	s0.5,0.224,0.5,0.5v6h6c0.276,0,0.5,0.224,0.5,0.5s-0.224,0.5-0.5,0.5h-6V17.5z M16,18.5c-1.382,0-2.5-1.116-2.5-2.5
	c0-1.382,1.118-2.5,2.5-2.5s2.5,1.118,2.5,2.5C18.5,17.384,17.382,18.5,16,18.5z"/>
</svg>
