<?xml version="1.0" encoding="utf-8"?>
<!-- Generator: Adobe Illustrator 15.1.0, SVG Export Plug-In . SVG Version: 6.00 Build 0)  -->
<!DOCTYPE svg PUBLIC "-//W3C//DTD SVG 1.1//EN" "http://www.w3.org/Graphics/SVG/1.1/DTD/svg11.dtd">
<svg version="1.1" id="Layer_1" xmlns="http://www.w3.org/2000/svg" xmlns:xlink="http://www.w3.org/1999/xlink" x="0px" y="0px"
	 width="22px" height="22px" viewBox="0 0 22 22" enable-background="new 0 0 22 22" xml:space="preserve">
<path fill="#000000" d="M12.5,21L7,15.5H3.5c-1,0-2-1-2-2v-5c0-1,1-2,2-2H7L12.5,1V21z"/>
<polygon display="none" stroke="#000000" stroke-linejoin="round" stroke-miterlimit="10" points="12,2 12,20 7,15 2,15 2,7 7,7 "/>
<g>
	<path fill="#000000" d="M18.422,3.573c1.957,1.938,3.092,4.671,3.078,7.425c0.014,2.754-1.119,5.486-3.076,7.426l-0.004,0.004
		c-0.295,0.293-0.77,0.289-1.061-0.005c-0.293-0.294-0.289-0.769,0.004-1.062c1.68-1.664,2.646-3.997,2.637-6.363
		c-0.001-1.183-0.232-2.357-0.686-3.445c-0.461-1.099-1.094-2.06-1.979-2.945c-0.293-0.292-0.293-0.767,0-1.06
		c0.292-0.292,0.767-0.292,1.06-0.003L18.422,3.573z"/>
</g>
<g>
	<path fill="#000000" d="M15.452,6.542c1.174,1.163,1.854,2.803,1.848,4.456c0.009,1.652-0.671,3.293-1.845,4.457l-0.004,0.004
		c-0.294,0.291-0.77,0.289-1.061-0.005s-0.289-0.769,0.004-1.06c0.896-0.895,1.41-2.135,1.402-3.396
		c-0.001-0.633-0.125-1.258-0.363-1.837c-0.25-0.591-0.572-1.087-1.066-1.583c-0.293-0.293-0.292-0.768,0.001-1.061
		c0.292-0.292,0.764-0.292,1.057-0.002L15.452,6.542z"/>
</g>
</svg>
