<?xml version="1.0" encoding="utf-8"?>
<!-- Generator: Adobe Illustrator 15.1.0, SVG Export Plug-In . SVG Version: 6.00 Build 0)  -->
<!DOCTYPE svg PUBLIC "-//W3C//DTD SVG 1.1//EN" "http://www.w3.org/Graphics/SVG/1.1/DTD/svg11.dtd">
<svg version="1.1" id="Layer_2" xmlns="http://www.w3.org/2000/svg" xmlns:xlink="http://www.w3.org/1999/xlink" x="0px" y="0px"
	 width="22px" height="22px" viewBox="0 0 22 22" enable-background="new 0 0 22 22" xml:space="preserve">
<g>
	<path d="M0.5,7.849C3.241,5.083,7.106,3.483,11,3.5c3.895-0.017,7.759,1.583,10.5,4.349L20.439,8.91C17.973,6.42,14.506,4.987,11,5
		C9.251,5,7.503,5.346,5.89,6.015C4.26,6.696,2.833,7.641,1.534,8.936L0.5,7.849z"/>
</g>
<g>
	<path d="M3,10.349c2.088-2.108,5.033-3.326,8-3.313c2.967-0.013,5.912,1.206,8,3.313l-1.061,1.061
		C16.124,9.579,13.578,8.526,11,8.536c-1.286,0-2.571,0.254-3.757,0.746c-1.202,0.504-2.238,1.187-3.209,2.155L3,10.349z"/>
</g>
<g>
	<path d="M5.5,12.85C6.936,11.4,8.96,10.562,11,10.57c2.04-0.008,4.064,0.83,5.5,2.279l-1.061,1.061
		c-1.164-1.172-2.789-1.844-4.439-1.84c-0.823,0.002-1.646,0.164-2.403,0.479c-0.774,0.328-1.419,0.747-2.063,1.389L5.5,12.85z"/>
</g>
<g>
	<path d="M8,15.35c1.657-1.656,4.344-1.656,6,0l-3,3L8,15.35z"/>
</g>
</svg>
