<?xml version="1.0" encoding="utf-8"?>
<!-- Generator: Adobe Illustrator 15.1.0, SVG Export Plug-In . SVG Version: 6.00 Build 0)  -->
<!DOCTYPE svg PUBLIC "-//W3C//DTD SVG 1.1//EN" "http://www.w3.org/Graphics/SVG/1.1/DTD/svg11.dtd">
<svg version="1.1" id="Layer_2" xmlns="http://www.w3.org/2000/svg" xmlns:xlink="http://www.w3.org/1999/xlink" x="0px" y="0px"
	 width="22px" height="22px" viewBox="0 0 22 22" enable-background="new 0 0 22 22" xml:space="preserve">
<g>
	<path d="M9.458,11.309c0-1.413-0.948-2.374-2.458-2.545v5.111C8.365,13.814,9.458,12.687,9.458,11.309z"/>
	<path d="M13.532,11.266l0.416-0.417l-0.722-0.721l-0.415,0.414c-0.095,0.096-0.147,0.225-0.147,0.362
		C12.664,11.322,13.242,11.56,13.532,11.266z"/>
	<path d="M7,14.881v2.922h0.347c0.763,0,1.384-0.622,1.384-1.386C8.731,15.695,8.125,14.93,7,14.881z"/>
	<path d="M13.5,0.5h-10v21h15v-16L13.5,0.5z M12.578,9.48c-0.205-0.205-0.317-0.478-0.317-0.767c0-0.6,0.486-1.088,1.085-1.088
		c0.289,0,0.562,0.112,0.769,0.316l-0.525,0.534c-0.2-0.195-0.578-0.04-0.578,0.238c0,0.09,0.035,0.174,0.098,0.237l1.369,1.369
		L14.797,10l0.531,0.53l-0.319,0.32l0.584,0.584l-0.529,0.531l-0.585-0.584l-0.415,0.416c-0.237,0.237-0.553,0.368-0.889,0.368
		c-0.695,0-1.261-0.565-1.261-1.26c0-0.337,0.13-0.653,0.367-0.891l0.415-0.415L12.578,9.48z M7.347,18.803H6V7.736h0.5
		c2.734,0,3.958,1.794,3.958,3.573c0,1.321-0.722,2.477-1.793,3.094c0.7,0.494,1.066,1.269,1.066,2.015
		C9.731,17.732,8.661,18.803,7.347,18.803z M13.346,18.846c-1.738,0-3.153-1.415-3.153-3.155c0-1.738,1.415-3.152,3.153-3.152
		c1.739,0,3.154,1.414,3.154,3.152C16.5,17.431,15.085,18.846,13.346,18.846z M13.5,5.5v-3l3,3H13.5z"/>
	<path d="M13.346,13.538c-1.188,0-2.153,0.966-2.153,2.152c0,1.188,0.966,2.155,2.153,2.155S15.5,16.879,15.5,15.69
		C15.5,14.504,14.533,13.538,13.346,13.538z"/>
</g>
<line fill="none" stroke="#FFFFFF" stroke-miterlimit="10" x1="7.708" y1="13.654" x2="7" y2="13.654"/>
</svg>
