<?xml version="1.0" encoding="utf-8"?>
<!-- Generator: Adobe Illustrator 15.1.0, SVG Export Plug-In . SVG Version: 6.00 Build 0)  -->
<!DOCTYPE svg PUBLIC "-//W3C//DTD SVG 1.1//EN" "http://www.w3.org/Graphics/SVG/1.1/DTD/svg11.dtd">
<svg version="1.1" id="Layer_2" xmlns="http://www.w3.org/2000/svg" xmlns:xlink="http://www.w3.org/1999/xlink" x="0px" y="0px"
	 width="22px" height="22px" viewBox="0 0 22 22" enable-background="new 0 0 22 22" xml:space="preserve">
<path fill="#FFFFFF" d="M11,0.5C5.201,0.5,0.5,5.201,0.5,11c0,5.8,4.701,10.5,10.5,10.5c5.8,0,10.5-4.7,10.5-10.5
	C21.5,5.201,16.8,0.5,11,0.5z M13.207,15.293c0.391,0.391,0.391,1.023,0,1.414C13.012,16.902,12.756,17,12.5,17
	s-0.512-0.098-0.707-0.293L6.086,11l5.707-5.707c0.391-0.391,1.023-0.391,1.414,0s0.391,1.023,0,1.414L8.914,11L13.207,15.293z"/>
</svg>
