<?xml version="1.0" encoding="utf-8"?>
<!-- Generator: Adobe Illustrator 15.1.0, SVG Export Plug-In . SVG Version: 6.00 Build 0)  -->
<!DOCTYPE svg PUBLIC "-//W3C//DTD SVG 1.1//EN" "http://www.w3.org/Graphics/SVG/1.1/DTD/svg11.dtd">
<svg version="1.1" id="Layer_2" xmlns="http://www.w3.org/2000/svg" xmlns:xlink="http://www.w3.org/1999/xlink" x="0px" y="0px"
	 width="22px" height="22px" viewBox="0 0 22 22" enable-background="new 0 0 22 22" xml:space="preserve">
<circle fill="none" stroke="#FFFFFF" stroke-width="1.5" stroke-miterlimit="10" cx="14.749" cy="14.75" r="4.25"/>
<path fill="none" stroke="#FFFFFF" stroke-width="1.5" stroke-linecap="square" stroke-miterlimit="10" d="M3.75,2.75V19h1.601
	c1.662,0,2.899-1.4,2.899-3.062c0-1.66-1.282-3.254-3.636-3.254c2.709,0,4.886-2.194,4.886-4.902C9.5,5.072,7.5,2.75,3.75,2.75z"/>
<path fill="none" stroke="#FFFFFF" stroke-miterlimit="10" d="M18.092,8.405L14.126,4.44l0,0c-0.205-0.206-0.332-0.49-0.332-0.804
	c0-0.626,0.509-1.136,1.136-1.136c0.313,0,0.6,0.127,0.805,0.333"/>
<path fill="none" stroke="#FFFFFF" stroke-miterlimit="10" d="M14.738,5.052l-1.084,1.085c-0.256,0.255-0.412,0.609-0.412,0.999
	c0,0.78,0.631,1.413,1.412,1.413c0.389,0,0.742-0.158,0.998-0.414l2.018-2.02"/>
<line fill="none" stroke="#FFFFFF" stroke-width="1.5" stroke-miterlimit="10" x1="5.172" y1="12.684" x2="3.75" y2="12.684"/>
</svg>
