<?xml version="1.0" encoding="utf-8"?>
<!-- Generator: Adobe Illustrator 15.1.0, SVG Export Plug-In . SVG Version: 6.00 Build 0)  -->
<!DOCTYPE svg PUBLIC "-//W3C//DTD SVG 1.1//EN" "http://www.w3.org/Graphics/SVG/1.1/DTD/svg11.dtd">
<svg version="1.1" id="Layer_1" xmlns="http://www.w3.org/2000/svg" xmlns:xlink="http://www.w3.org/1999/xlink" x="0px" y="0px"
	 width="22px" height="22px" viewBox="0 0 22 22" enable-background="new 0 0 22 22" xml:space="preserve">
<path fill="#FFFFFF" d="M19.236,4.5H18.5v7H17v-7h-1.5v7h-1v-7H2.764C1.35,6.289,0.5,8.543,0.5,11c0,5.8,4.701,10.5,10.5,10.5
	c5.8,0,10.5-4.7,10.5-10.5C21.5,8.543,20.65,6.289,19.236,4.5z M11,12.5c-0.829,0-1.5-0.67-1.5-1.5c0-0.829,0.671-1.5,1.5-1.5
	c0.83,0,1.5,0.671,1.5,1.5C12.5,11.83,11.83,12.5,11,12.5z"/>
<line fill="none" stroke="#FFFFFF" stroke-width="2" stroke-miterlimit="10" x1="1.5" y1="2.5" x2="20.5" y2="2.5"/>
</svg>
