<?xml version="1.0" encoding="utf-8"?>
<!-- Generator: Adobe Illustrator 15.1.0, SVG Export Plug-In . SVG Version: 6.00 Build 0)  -->
<!DOCTYPE svg PUBLIC "-//W3C//DTD SVG 1.1//EN" "http://www.w3.org/Graphics/SVG/1.1/DTD/svg11.dtd">
<svg version="1.1" id="Layer_1" xmlns="http://www.w3.org/2000/svg" xmlns:xlink="http://www.w3.org/1999/xlink" x="0px" y="0px"
	 width="22px" height="22px" viewBox="0 0 22 22" enable-background="new 0 0 22 22" xml:space="preserve">
<path fill="#FFFFFF" d="M18.5,6.5c-0.216,0-0.771,0-1.5,0v7c0,1.832-1.668,3.5-3.5,3.5h-7c0,0.729,0,1.284,0,1.5c0,1,1,2,2,2
	s9,0,10,0s2-1,2-2c0-1.001,0-9,0-10S19.5,6.5,18.5,6.5z"/>
<path fill="#FFFFFF" d="M13.5,1.5c-1,0-9,0-10,0s-2,1-2,2s0,9,0,10s1,2,2,2s9,0,10,0s2-1,2-2c0-1.001,0-9,0-10S14.5,1.5,13.5,1.5z
	 M8.5,11.5c-1.657,0-3-1.343-3-3s1.343-3,3-3s3,1.343,3,3S10.157,11.5,8.5,11.5z"/>
</svg>
