<?xml version="1.0" encoding="utf-8"?>
<!-- Generator: Adobe Illustrator 15.1.0, SVG Export Plug-In . SVG Version: 6.00 Build 0)  -->
<!DOCTYPE svg PUBLIC "-//W3C//DTD SVG 1.1//EN" "http://www.w3.org/Graphics/SVG/1.1/DTD/svg11.dtd">
<svg version="1.1" id="Layer_2" xmlns="http://www.w3.org/2000/svg" xmlns:xlink="http://www.w3.org/1999/xlink" x="0px" y="0px"
	 width="22px" height="22px" viewBox="0 0 22 22" enable-background="new 0 0 22 22" xml:space="preserve">
<path fill="#FFFFFF" d="M18.5,1.5c-1,0-14,0-15,0s-2,1-2,2s0,14,0,15s1,2,2,2s14,0,15,0s2-1,2-2s0-14,0-15S19.5,1.5,18.5,1.5z
	 M17.502,7H17.5l-2.039,0.002c-0.443,0.009-0.896,0.139-1.385,0.377c-0.697,0.344-1.387,0.88-2.04,1.499
	c1.769,2,3.222,4.265,4.464,6.623c0.193,0.366,0.053,0.819-0.314,1.013c-0.365,0.193-0.818,0.053-1.013-0.312
	c0-0.001-0.001-0.001-0.001-0.002l-0.014-0.026c-0.588-1.139-1.295-2.323-2.028-3.422c-0.657-0.981-1.371-1.914-2.13-2.775
	c-0.759,0.861-1.471,1.793-2.13,2.775c-0.734,1.099-1.441,2.283-2.028,3.422L6.83,16.193c-0.19,0.367-0.643,0.513-1.011,0.322
	c-0.368-0.189-0.512-0.644-0.322-1.011c0-0.001,0.002-0.005,0.003-0.006c1.242-2.358,2.695-4.622,4.464-6.623
	C9.31,8.258,8.621,7.723,7.923,7.379C7.435,7.141,6.982,7.011,6.539,7.002L4.5,7C4.086,7,3.75,6.665,3.749,6.251
	S4.084,5.5,4.498,5.5H4.5l2.085,0.002c0.697,0.016,1.377,0.224,1.999,0.53C9.482,6.481,10.274,7.104,11,7.793
	c0.727-0.69,1.518-1.312,2.416-1.761c0.622-0.306,1.303-0.514,1.999-0.53L17.5,5.5c0.414,0,0.75,0.335,0.751,0.749
	S17.916,7,17.502,7z"/>
</svg>
