<?xml version="1.0" encoding="utf-8"?>
<!-- Generator: Adobe Illustrator 15.1.0, SVG Export Plug-In . SVG Version: 6.00 Build 0)  -->
<!DOCTYPE svg PUBLIC "-//W3C//DTD SVG 1.1//EN" "http://www.w3.org/Graphics/SVG/1.1/DTD/svg11.dtd">
<svg version="1.1" id="Layer_2" xmlns="http://www.w3.org/2000/svg" xmlns:xlink="http://www.w3.org/1999/xlink" x="0px" y="0px"
	 width="22px" height="22px" viewBox="0 0 22 22" enable-background="new 0 0 22 22" xml:space="preserve">
<path fill="#FFFFFF" d="M11,0.5C5.201,0.5,0.5,5.201,0.5,11c0,5.8,4.701,10.5,10.5,10.5c5.8,0,10.5-4.7,10.5-10.5
	C21.5,5.201,16.8,0.5,11,0.5z M15.207,13.793c0.391,0.391,0.391,1.023,0,1.414C15.012,15.402,14.756,15.5,14.5,15.5
	s-0.512-0.098-0.707-0.293L11,12.414l-2.793,2.793C8.012,15.402,7.756,15.5,7.5,15.5s-0.512-0.098-0.707-0.293
	c-0.391-0.391-0.391-1.023,0-1.414L9.586,11L6.793,8.207c-0.391-0.391-0.391-1.023,0-1.414s1.023-0.391,1.414,0L11,9.586
	l2.793-2.793c0.391-0.391,1.023-0.391,1.414,0s0.391,1.023,0,1.414L12.414,11L15.207,13.793z"/>
</svg>
