<?xml version="1.0" encoding="utf-8"?>
<!-- Generator: Adobe Illustrator 15.1.0, SVG Export Plug-In . SVG Version: 6.00 Build 0)  -->
<!DOCTYPE svg PUBLIC "-//W3C//DTD SVG 1.1//EN" "http://www.w3.org/Graphics/SVG/1.1/DTD/svg11.dtd">
<svg version="1.1" id="Layer_2" xmlns="http://www.w3.org/2000/svg" xmlns:xlink="http://www.w3.org/1999/xlink" x="0px" y="0px"
	 width="22px" height="22px" viewBox="0 0 22 22" enable-background="new 0 0 22 22" xml:space="preserve">
<path fill="#FFFFFF" d="M18.5,1.5c-1,0-14,0-15,0s-2,1-2,2s0,14,0,15s1,2,2,2s14,0,15,0s2-1,2-2s0-14,0-15S19.5,1.5,18.5,1.5z
	 M17.5,16.5c-1.1,0.02-1.947-0.848-2.458-1.734c-0.536-0.906-0.897-1.902-1.233-2.897c-0.334-0.998-0.625-2.01-0.98-3
	c-0.182-0.494-0.376-0.985-0.641-1.441C11.932,6.992,11.555,6.507,11,6.5c-0.555,0.007-0.93,0.492-1.188,0.927
	c-0.264,0.456-0.459,0.947-0.64,1.441c-0.356,0.99-0.647,2.002-0.981,3c-0.335,0.995-0.697,1.991-1.233,2.897
	C6.447,15.652,5.6,16.52,4.5,16.5l-0.04-0.001c-0.414-0.007-0.743-0.349-0.736-0.763c0.007-0.397,0.325-0.717,0.716-0.735
	l0.185-0.008c0.004-0.007-0.009-0.001,0.009-0.005c0.041-0.01,0.08-0.018,0.12-0.033c0.079-0.029,0.167-0.077,0.268-0.156
	c0.203-0.158,0.439-0.449,0.65-0.805c0.429-0.721,0.778-1.646,1.097-2.603c0.324-0.963,0.612-1.972,0.994-3.036
	C7.961,7.821,8.17,7.273,8.519,6.668c0.184-0.304,0.393-0.629,0.765-0.973C9.628,5.359,10.289,4.991,11,5l0.193,0.009
	c0.03,0,0.205,0.022,0.299,0.043c0.219,0.048,0.351,0.095,0.506,0.166c0.298,0.134,0.537,0.309,0.719,0.477
	c0.372,0.344,0.58,0.669,0.766,0.973c0.349,0.605,0.558,1.153,0.756,1.688c0.382,1.064,0.67,2.073,0.994,3.036
	c0.318,0.956,0.668,1.881,1.097,2.603c0.212,0.354,0.446,0.646,0.649,0.805c0.211,0.156,0.33,0.194,0.521,0.201l0.016,0.001
	c0.414,0.016,0.736,0.363,0.721,0.777C18.223,16.178,17.895,16.492,17.5,16.5z"/>
</svg>
