<?xml version="1.0" encoding="utf-8"?>
<!-- Generator: Adobe Illustrator 15.1.0, SVG Export Plug-In . SVG Version: 6.00 Build 0)  -->
<!DOCTYPE svg PUBLIC "-//W3C//DTD SVG 1.1//EN" "http://www.w3.org/Graphics/SVG/1.1/DTD/svg11.dtd">
<svg version="1.1" id="Layer_2" xmlns="http://www.w3.org/2000/svg" xmlns:xlink="http://www.w3.org/1999/xlink" x="0px" y="0px"
	 width="22px" height="22px" viewBox="0 0 22 22" enable-background="new 0 0 22 22" xml:space="preserve">
<path fill="#FFFFFF" d="M18.5,1.5c-1,0-14,0-15,0s-2,1-2,2s0,14,0,15s1,2,2,2s14,0,15,0s2-1,2-2s0-14,0-15S19.5,1.5,18.5,1.5z
	 M17.5,7h-2.33c-0.896-0.011-1.232,0.003-1.826,0.194c-1.092,0.362-2.163,1.229-3.088,2.272c-0.93,1.049-1.745,2.272-2.468,3.556
	c-0.715,1.275-1.373,2.668-1.878,3.99l-0.009,0.022c-0.147,0.387-0.581,0.581-0.968,0.433C4.546,17.32,4.352,16.887,4.5,16.5
	c0.554-1.451,1.223-2.857,1.98-4.213c0.763-1.352,1.625-2.654,2.655-3.818c1.028-1.15,2.252-2.196,3.734-2.698
	c0.736-0.264,1.525-0.29,2.3-0.271h2.33c0.414,0,0.75,0.336,0.75,0.75S17.914,7,17.5,7z"/>
</svg>
