<?xml version="1.0" encoding="utf-8"?>
<!-- Generator: Adobe Illustrator 15.1.0, SVG Export Plug-In . SVG Version: 6.00 Build 0)  -->
<!DOCTYPE svg PUBLIC "-//W3C//DTD SVG 1.1//EN" "http://www.w3.org/Graphics/SVG/1.1/DTD/svg11.dtd">
<svg version="1.1" id="Layer_2" xmlns="http://www.w3.org/2000/svg" xmlns:xlink="http://www.w3.org/1999/xlink" x="0px" y="0px"
	 width="22px" height="22px" viewBox="0 0 22 22" enable-background="new 0 0 22 22" xml:space="preserve">
<path fill="#FFFFFF" d="M18.5,1.5c-1,0-14,0-15,0s-2,1-2,2s0,14,0,15s1,2,2,2s14,0,15,0s2-1,2-2s0-14,0-15S19.5,1.5,18.5,1.5z
	 M8.5,11.75h-5v-1.5h5V11.75z M18.068,16.5h-1.803L13.5,12.352L10.734,16.5H8.932L12.6,11L8.932,5.5h1.803L13.5,9.648L16.266,5.5
	h1.803L14.4,11L18.068,16.5z"/>
</svg>
