<?xml version="1.0" encoding="utf-8"?>
<!-- Generator: Adobe Illustrator 15.1.0, SVG Export Plug-In . SVG Version: 6.00 Build 0)  -->
<!DOCTYPE svg PUBLIC "-//W3C//DTD SVG 1.1//EN" "http://www.w3.org/Graphics/SVG/1.1/DTD/svg11.dtd">
<svg version="1.1" id="Layer_2" xmlns="http://www.w3.org/2000/svg" xmlns:xlink="http://www.w3.org/1999/xlink" x="0px" y="0px"
	 width="22px" height="22px" viewBox="0 0 22 22" enable-background="new 0 0 22 22" xml:space="preserve">
<path fill="#FFFFFF" d="M11,0.5C5.201,0.5,0.5,5.201,0.5,11c0,5.8,4.701,10.5,10.5,10.5c5.8,0,10.5-4.7,10.5-10.5
	C21.5,5.201,16.8,0.5,11,0.5z M16,13.844l-0.009-0.003c0.009,0.741-0.689,1.454-1.681,1.652c-1.084,0.217-2.095-0.267-2.256-1.078
	c-0.164-0.813,0.581-1.646,1.668-1.863c0.461-0.092,0.901-0.052,1.275,0.08v-5.05l-6,0.857v6.405L8.99,14.841
	c0.009,0.741-0.689,1.454-1.681,1.652c-1.084,0.217-2.093-0.267-2.255-1.078c-0.163-0.813,0.582-1.646,1.667-1.863
	c0.46-0.092,0.903-0.052,1.277,0.08V6.066l8-1.143v8.921H16z"/>
</svg>
