<?xml version="1.0" encoding="utf-8"?>
<!-- Generator: Adobe Illustrator 15.1.0, SVG Export Plug-In . SVG Version: 6.00 Build 0)  -->
<!DOCTYPE svg PUBLIC "-//W3C//DTD SVG 1.1//EN" "http://www.w3.org/Graphics/SVG/1.1/DTD/svg11.dtd">
<svg version="1.1" id="Layer_1" xmlns="http://www.w3.org/2000/svg" xmlns:xlink="http://www.w3.org/1999/xlink" x="0px" y="0px"
	 width="22px" height="22px" viewBox="0 0 22 22" enable-background="new 0 0 22 22" xml:space="preserve">
<polygon fill="#FFFFFF" points="4.5,10.5 7.5,14.5 14.5,14.5 17.5,10.5 "/>
<path fill="#FFFFFF" d="M18.186,9.5c0.202-0.634,0.314-1.305,0.314-2c0-3.866-3.357-7-7.5-7c-4.142,0-7.5,3.134-7.5,7
	c0,0.695,0.112,1.366,0.314,2H18.186z"/>
<g>
	<path fill="#FFFFFF" d="M14,17H8c-0.414,0-0.75-0.336-0.75-0.75S7.586,15.5,8,15.5h6c0.414,0,0.75,0.336,0.75,0.75S14.414,17,14,17
		z"/>
</g>
<g>
	<path fill="#FFFFFF" d="M13.5,19h-5c-0.414,0-0.75-0.336-0.75-0.75S8.086,17.5,8.5,17.5h5c0.414,0,0.75,0.336,0.75,0.75
		S13.914,19,13.5,19z"/>
</g>
<g>
	<path fill="#FFFFFF" d="M12,21h-2c-0.414,0-0.75-0.336-0.75-0.75S9.586,19.5,10,19.5h2c0.414,0,0.75,0.336,0.75,0.75
		S12.414,21,12,21z"/>
</g>
</svg>
