<?xml version="1.0" encoding="utf-8"?>
<!-- Generator: Adobe Illustrator 15.1.0, SVG Export Plug-In . SVG Version: 6.00 Build 0)  -->
<!DOCTYPE svg PUBLIC "-//W3C//DTD SVG 1.1//EN" "http://www.w3.org/Graphics/SVG/1.1/DTD/svg11.dtd">
<svg version="1.1" id="Layer_1" xmlns="http://www.w3.org/2000/svg" xmlns:xlink="http://www.w3.org/1999/xlink" x="0px" y="0px"
	 width="22px" height="22px" viewBox="0 0 22 22" enable-background="new 0 0 22 22" xml:space="preserve">
<g>
	<path fill="#FFFFFF" d="M5.5,8.5l0.004-2.776C5.53,4.797,5.842,3.889,6.347,3.115C7.359,1.57,9.138,0.51,11,0.5
		c1.861,0.01,3.643,1.07,4.652,2.614c0.505,0.774,0.816,1.682,0.843,2.609L16.5,8.5H15l-0.004-2.727
		c-0.018-0.637-0.23-1.271-0.6-1.839C13.646,2.793,12.311,1.992,10.959,2C9.77,1.992,8.316,2.793,7.603,3.935
		C7.235,4.499,7.021,5.144,7.004,5.767L7,8.5H5.5z"/>
</g>
<path fill="#FFFFFF" d="M3.5,9.5v9c0,1,1,2,2,2h11c1,0,2-1,2-2v-9H3.5z M16.5,18.5H15v-7h1.5V18.5z"/>
</svg>
