<?xml version="1.0" encoding="utf-8"?>
<!-- Generator: Adobe Illustrator 15.1.0, SVG Export Plug-In . SVG Version: 6.00 Build 0)  -->
<!DOCTYPE svg PUBLIC "-//W3C//DTD SVG 1.1//EN" "http://www.w3.org/Graphics/SVG/1.1/DTD/svg11.dtd">
<svg version="1.1" id="Layer_2" xmlns="http://www.w3.org/2000/svg" xmlns:xlink="http://www.w3.org/1999/xlink" x="0px" y="0px"
	 width="22px" height="22px" viewBox="0 0 22 22" enable-background="new 0 0 22 22" xml:space="preserve">
<path fill="#FFFFFF" d="M1.5,3.5c0,1,0,14,0,15s1,2,2,2s14,0,15,0s2-1,2-2s0-14,0-15s-1-2-2-2s-14,0-15,0S1.5,2.5,1.5,3.5z
	 M3.75,6.25c0-0.414,0.336-0.75,0.75-0.75h2.33c0.773-0.019,1.562,0.007,2.3,0.271c1.482,0.502,2.706,1.548,3.734,2.698
	c1.03,1.164,1.893,2.466,2.655,3.818c0.758,1.355,1.426,2.762,1.98,4.213c0.148,0.387-0.046,0.82-0.434,0.968
	c-0.387,0.148-0.82-0.046-0.967-0.433l-0.01-0.022c-0.505-1.323-1.163-2.715-1.878-3.99c-0.724-1.283-1.538-2.507-2.468-3.556
	c-0.925-1.043-1.996-1.911-3.088-2.272C8.063,7.003,7.726,6.989,6.83,7H4.5C4.086,7,3.75,6.664,3.75,6.25z"/>
</svg>
