<?xml version="1.0" encoding="utf-8"?>
<!-- Generator: Adobe Illustrator 15.1.0, SVG Export Plug-In . SVG Version: 6.00 Build 0)  -->
<!DOCTYPE svg PUBLIC "-//W3C//DTD SVG 1.1//EN" "http://www.w3.org/Graphics/SVG/1.1/DTD/svg11.dtd">
<svg version="1.1" id="Layer_2" xmlns="http://www.w3.org/2000/svg" xmlns:xlink="http://www.w3.org/1999/xlink" x="0px" y="0px"
	 width="22px" height="22px" viewBox="0 0 22 22" enable-background="new 0 0 22 22" xml:space="preserve">
<path fill="#FFFFFF" d="M1,18l3,3L21,4l-3-3L1,18z M15.5,5.5L18,3l1,1l-2.5,2.5L15.5,5.5z"/>
<polygon fill="#FFFFFF" points="6.216,3.784 9.5,5 6.216,6.216 5,9.5 3.784,6.216 0.5,5 3.784,3.784 5,0.5 "/>
<polygon fill="#FFFFFF" points="20.041,10.959 21.5,11.5 20.041,12.041 19.5,13.5 18.96,12.041 17.5,11.5 18.96,10.959 19.5,9.5 "/>
<polygon fill="#FFFFFF" points="17.311,17.688 19.5,18.5 17.311,19.312 16.5,21.5 15.689,19.312 13.5,18.5 15.689,17.688 16.5,15.5 
	"/>
</svg>
