<?xml version="1.0" encoding="utf-8"?>
<!-- Generator: Adobe Illustrator 15.1.0, SVG Export Plug-In . SVG Version: 6.00 Build 0)  -->
<!DOCTYPE svg PUBLIC "-//W3C//DTD SVG 1.1//EN" "http://www.w3.org/Graphics/SVG/1.1/DTD/svg11.dtd">
<svg version="1.1" id="Layer_2" xmlns="http://www.w3.org/2000/svg" xmlns:xlink="http://www.w3.org/1999/xlink" x="0px" y="0px"
	 width="22px" height="22px" viewBox="0 0 22 22" enable-background="new 0 0 22 22" xml:space="preserve">
<g>
	<path fill="#FFFFFF" d="M4.914,8.914l-3.5,3.5V9.586l3.5,3.5c0.391,0.391,0.391,1.023,0,1.414s-1.023,0.391-1.414,0L0,11l0,0l0,0
		l3.5-3.5c0.391-0.391,1.023-0.391,1.414,0S5.305,8.523,4.914,8.914z"/>
</g>
<g>
	<path fill="#FFFFFF" d="M17.086,13.086l3.5-3.5v2.829l-3.5-3.5c-0.391-0.39-0.391-1.023,0-1.414s1.023-0.391,1.414,0L22,11l0,0l0,0
		l-3.5,3.5c-0.391,0.391-1.023,0.391-1.414,0S16.695,13.477,17.086,13.086z"/>
</g>
<line fill="none" stroke="#FFFFFF" stroke-width="2" stroke-miterlimit="10" x1="1.5" y1="10.917" x2="20.5" y2="10.917"/>
<g>
	<path fill="#FFFFFF" d="M8.914,17.086l3.5,3.5H9.586l3.5-3.5c0.391-0.391,1.023-0.391,1.414,0s0.391,1.023,0,1.414L11,22l0,0l0,0
		l-3.5-3.5c-0.391-0.391-0.391-1.023,0-1.414S8.523,16.695,8.914,17.086z"/>
</g>
<g>
	<path fill="#FFFFFF" d="M13.086,4.914l-3.5-3.5h2.828l-3.5,3.5c-0.391,0.391-1.023,0.391-1.414,0S7.109,3.891,7.5,3.5L11,0l0,0l0,0
		l3.5,3.5c0.391,0.391,0.391,1.023,0,1.414S13.477,5.305,13.086,4.914z"/>
</g>
<line fill="none" stroke="#FFFFFF" stroke-width="2" stroke-miterlimit="10" x1="10.917" y1="20.5" x2="10.917" y2="1.5"/>
</svg>
