<?xml version="1.0" encoding="utf-8"?>
<!-- Generator: Adobe Illustrator 15.1.0, SVG Export Plug-In . SVG Version: 6.00 Build 0)  -->
<!DOCTYPE svg PUBLIC "-//W3C//DTD SVG 1.1//EN" "http://www.w3.org/Graphics/SVG/1.1/DTD/svg11.dtd">
<svg version="1.1" id="Layer_2" xmlns="http://www.w3.org/2000/svg" xmlns:xlink="http://www.w3.org/1999/xlink" x="0px" y="0px"
	 width="22px" height="22px" viewBox="0 0 22 22" enable-background="new 0 0 22 22" xml:space="preserve">
<polyline fill="none" stroke="#FFFFFF" stroke-width="2" stroke-linecap="round" stroke-miterlimit="10" points="6,6.5 1.5,11 
	6,15.5 "/>
<polyline fill="none" stroke="#FFFFFF" stroke-width="2" stroke-linecap="round" stroke-miterlimit="10" points="16,15.5 20.5,11 
	16,6.5 "/>
<path fill="#FFFFFF" d="M8.5,11c0,0.829-0.672,1.5-1.5,1.5l0,0c-0.828,0-1.5-0.671-1.5-1.5l0,0c0-0.828,0.672-1.5,1.5-1.5l0,0
	C7.828,9.5,8.5,10.172,8.5,11L8.5,11z"/>
<path fill="#FFFFFF" d="M12.5,11c0,0.829-0.671,1.5-1.5,1.5l0,0c-0.828,0-1.5-0.671-1.5-1.5l0,0c0-0.828,0.672-1.5,1.5-1.5l0,0
	C11.829,9.5,12.5,10.172,12.5,11L12.5,11z"/>
<path fill="#FFFFFF" d="M16.5,11c0,0.829-0.671,1.5-1.5,1.5l0,0c-0.829,0-1.5-0.671-1.5-1.5l0,0c0-0.828,0.671-1.5,1.5-1.5l0,0
	C15.829,9.5,16.5,10.172,16.5,11L16.5,11z"/>
</svg>
