<?xml version="1.0" encoding="utf-8"?>
<!-- Generator: Adobe Illustrator 15.1.0, SVG Export Plug-In . SVG Version: 6.00 Build 0)  -->
<!DOCTYPE svg PUBLIC "-//W3C//DTD SVG 1.1//EN" "http://www.w3.org/Graphics/SVG/1.1/DTD/svg11.dtd">
<svg version="1.1" id="Layer_2" xmlns="http://www.w3.org/2000/svg" xmlns:xlink="http://www.w3.org/1999/xlink" x="0px" y="0px"
	 width="22px" height="22px" viewBox="0 0 22 22" enable-background="new 0 0 22 22" xml:space="preserve">
<g>
	<path fill="#FFFFFF" d="M6.5,11c0-0.552,0.448-1,1-1h6.921C13.934,6.609,11.025,4,7.5,4c-3.866,0-7,3.134-7,7s3.134,7,7,7
		c3.525,0,6.434-2.609,6.921-6H7.5C6.948,12,6.5,11.553,6.5,11z"/>
	<path fill="#FFFFFF" d="M17.207,6.293c-0.391-0.391-1.023-0.391-1.414,0s-0.391,1.023,0,1.414L18.086,10h-3.665
		c0.047,0.328,0.079,0.66,0.079,1s-0.032,0.673-0.079,1h3.665l-2.293,2.293c-0.391,0.391-0.391,1.023,0,1.414
		C15.988,15.902,16.244,16,16.5,16s0.512-0.098,0.707-0.293L21.914,11L17.207,6.293z"/>
</g>
</svg>
