<?xml version="1.0" encoding="utf-8"?>
<!-- Generator: Adobe Illustrator 15.1.0, SVG Export Plug-In . SVG Version: 6.00 Build 0)  -->
<!DOCTYPE svg PUBLIC "-//W3C//DTD SVG 1.1//EN" "http://www.w3.org/Graphics/SVG/1.1/DTD/svg11.dtd">
<svg version="1.1" id="Layer_2" xmlns="http://www.w3.org/2000/svg" xmlns:xlink="http://www.w3.org/1999/xlink" x="0px" y="0px"
	 width="22px" height="22px" viewBox="0 0 22 22" enable-background="new 0 0 22 22" xml:space="preserve">
<path fill="#FFFFFF" d="M4,1.5C2.619,1.5,1.5,2.619,1.5,4S2.619,6.5,4,6.5S6.5,5.381,6.5,4S5.381,1.5,4,1.5L4,1.5z"/>
<path fill="#FFFFFF" d="M11,1.5C9.619,1.5,8.5,2.619,8.5,4S9.619,6.5,11,6.5s2.5-1.119,2.5-2.5S12.381,1.5,11,1.5L11,1.5z"/>
<path fill="#FFFFFF" d="M18,1.5c-1.381,0-2.5,1.119-2.5,2.5s1.119,2.5,2.5,2.5s2.5-1.119,2.5-2.5S19.381,1.5,18,1.5L18,1.5z"/>
<path fill="#FFFFFF" d="M4,8.5c-1.381,0-2.5,1.119-2.5,2.5s1.119,2.5,2.5,2.5s2.5-1.119,2.5-2.5S5.381,8.5,4,8.5L4,8.5z"/>
<path fill="#FFFFFF" d="M11,8.5c-1.381,0-2.5,1.119-2.5,2.5s1.119,2.5,2.5,2.5s2.5-1.119,2.5-2.5S12.381,8.5,11,8.5L11,8.5z"/>
<path fill="#FFFFFF" d="M18,8.5c-1.381,0-2.5,1.119-2.5,2.5s1.119,2.5,2.5,2.5s2.5-1.119,2.5-2.5S19.381,8.5,18,8.5L18,8.5z"/>
<path fill="#FFFFFF" d="M4,15.5c-1.381,0-2.5,1.119-2.5,2.5s1.119,2.5,2.5,2.5s2.5-1.119,2.5-2.5S5.381,15.5,4,15.5L4,15.5z"/>
<path fill="#FFFFFF" d="M11,15.5c-1.381,0-2.5,1.119-2.5,2.5s1.119,2.5,2.5,2.5s2.5-1.119,2.5-2.5S12.381,15.5,11,15.5L11,15.5z"/>
<path fill="#FFFFFF" d="M18,15.5c-1.381,0-2.5,1.119-2.5,2.5s1.119,2.5,2.5,2.5s2.5-1.119,2.5-2.5S19.381,15.5,18,15.5L18,15.5z"/>
</svg>
