<?xml version="1.0" encoding="utf-8"?>
<!-- Generator: Adobe Illustrator 15.1.0, SVG Export Plug-In . SVG Version: 6.00 Build 0)  -->
<!DOCTYPE svg PUBLIC "-//W3C//DTD SVG 1.1//EN" "http://www.w3.org/Graphics/SVG/1.1/DTD/svg11.dtd">
<svg version="1.1" id="Layer_2" xmlns="http://www.w3.org/2000/svg" xmlns:xlink="http://www.w3.org/1999/xlink" x="0px" y="0px"
	 width="22px" height="22px" viewBox="0 0 22 22" enable-background="new 0 0 22 22" xml:space="preserve">
<path fill="#FFFFFF" d="M5.5,1.5c-2.209,0-4,1.791-4,4s1.791,4,4,4s4-1.791,4-4S7.709,1.5,5.5,1.5L5.5,1.5z"/>
<g>
	<path fill="#FFFFFF" d="M16.5,3C17.879,3,19,4.122,19,5.5S17.879,8,16.5,8S14,6.878,14,5.5S15.121,3,16.5,3 M16.5,1.5
		c-2.209,0-4,1.791-4,4s1.791,4,4,4s4-1.791,4-4S18.709,1.5,16.5,1.5L16.5,1.5z"/>
</g>
<g>
	<path fill="#FFFFFF" d="M5.5,14C6.878,14,8,15.121,8,16.5S6.878,19,5.5,19S3,17.879,3,16.5S4.122,14,5.5,14 M5.5,12.5
		c-2.209,0-4,1.791-4,4s1.791,4,4,4s4-1.791,4-4S7.709,12.5,5.5,12.5L5.5,12.5z"/>
</g>
<g>
	<path fill="#FFFFFF" d="M16.5,14c1.379,0,2.5,1.121,2.5,2.5S17.879,19,16.5,19S14,17.879,14,16.5S15.121,14,16.5,14 M16.5,12.5
		c-2.209,0-4,1.791-4,4s1.791,4,4,4s4-1.791,4-4S18.709,12.5,16.5,12.5L16.5,12.5z"/>
</g>
</svg>
