<?xml version="1.0" encoding="utf-8"?>
<!-- Generator: Adobe Illustrator 15.1.0, SVG Export Plug-In . SVG Version: 6.00 Build 0)  -->
<!DOCTYPE svg PUBLIC "-//W3C//DTD SVG 1.1//EN" "http://www.w3.org/Graphics/SVG/1.1/DTD/svg11.dtd">
<svg version="1.1" id="Layer_1" xmlns="http://www.w3.org/2000/svg" xmlns:xlink="http://www.w3.org/1999/xlink" x="0px" y="0px"
	 width="22px" height="22px" viewBox="0 0 22 22" enable-background="new 0 0 22 22" xml:space="preserve">
<g>
	<path fill="#FFFFFF" d="M12,4.564v9.022l2.293-2.293c0.391-0.391,1.023-0.391,1.414,0c0.391,0.391,0.391,1.023,0,1.414L11,17.414
		l-4.707-4.707c-0.391-0.391-0.391-1.023,0-1.414c0.391-0.391,1.023-0.391,1.414,0L10,13.586V4.564C5.777,5.06,2.5,8.644,2.5,13
		c0,4.695,3.805,8.5,8.5,8.5c4.695,0,8.5-3.805,8.5-8.5C19.5,8.644,16.223,5.06,12,4.564z"/>
	<path fill="#FFFFFF" d="M12,4.564V1.5c0-0.552-0.447-1-1-1c-0.552,0-1,0.448-1,1v3.064C10.329,4.525,10.661,4.5,11,4.5
		S11.672,4.525,12,4.564z"/>
</g>
</svg>
