<?xml version="1.0" encoding="utf-8"?>
<!-- Generator: Adobe Illustrator 15.1.0, SVG Export Plug-In . SVG Version: 6.00 Build 0)  -->
<!DOCTYPE svg PUBLIC "-//W3C//DTD SVG 1.1//EN" "http://www.w3.org/Graphics/SVG/1.1/DTD/svg11.dtd">
<svg version="1.1" id="Layer_2" xmlns="http://www.w3.org/2000/svg" xmlns:xlink="http://www.w3.org/1999/xlink" x="0px" y="0px"
	 width="22px" height="22px" viewBox="0 0 22 22" enable-background="new 0 0 22 22" xml:space="preserve">
<path fill="#FFFFFF" d="M11,0.5C5.201,0.5,0.5,5.201,0.5,11c0,5.8,4.701,10.5,10.5,10.5c5.8,0,10.5-4.7,10.5-10.5
	C21.5,5.201,16.8,0.5,11,0.5z M15.003,16.369c-0.096,0.15-0.258,0.234-0.424,0.234c-0.093,0-0.185-0.024-0.267-0.076
	c-2.432-1.528-5.512-1.928-8.247-1.092c-0.265,0.08-0.543-0.068-0.624-0.332c-0.081-0.265,0.068-0.543,0.332-0.625
	c3.008-0.918,6.395-0.479,9.07,1.201C15.079,15.827,15.148,16.136,15.003,16.369z M16.738,13.307
	c-0.141,0.238-0.391,0.37-0.647,0.37c-0.129,0-0.26-0.032-0.379-0.104c-2.973-1.747-6.639-2.258-9.954-1.425
	c-0.403,0.102-0.809-0.143-0.911-0.543c-0.101-0.402,0.143-0.811,0.544-0.912c3.692-0.93,7.773-0.359,11.08,1.585
	C16.829,12.49,16.948,12.95,16.738,13.307z M17.622,10.256c-0.167,0-0.336-0.042-0.491-0.129C13.633,8.149,9.385,7.525,5.464,8.384
	c-0.54,0.121-1.073-0.223-1.191-0.762C4.155,7.082,4.497,6.549,5.036,6.43c4.399-0.964,9.155-0.262,13.08,1.955
	c0.479,0.272,0.649,0.882,0.378,1.363C18.311,10.073,17.971,10.256,17.622,10.256z"/>
</svg>
