<?xml version="1.0" encoding="utf-8"?>
<!-- Generator: Adobe Illustrator 15.1.0, SVG Export Plug-In . SVG Version: 6.00 Build 0)  -->
<!DOCTYPE svg PUBLIC "-//W3C//DTD SVG 1.1//EN" "http://www.w3.org/Graphics/SVG/1.1/DTD/svg11.dtd">
<svg version="1.1" id="Layer_2" xmlns="http://www.w3.org/2000/svg" xmlns:xlink="http://www.w3.org/1999/xlink" x="0px" y="0px"
	 width="22px" height="22px" viewBox="0 0 22 22" enable-background="new 0 0 22 22" xml:space="preserve">
<path fill="#FFFFFF" d="M11,3.5c-3.801,0-7.601,1.45-10.5,4.349L11,18.35l10.5-10.5C18.602,4.95,14.8,3.5,11,3.5z M14.5,11H12v2.5
	c0,0.553-0.447,1-1,1c-0.552,0-1-0.447-1-1V11H7.5c-0.552,0-1-0.447-1-1c0-0.552,0.448-1,1-1H10V6.5c0-0.552,0.448-1,1-1
	c0.553,0,1,0.448,1,1V9h2.5c0.553,0,1,0.448,1,1C15.5,10.553,15.053,11,14.5,11z"/>
</svg>
